<?xml version="1.0" encoding="UTF-8" standalone="no"?>
<svg
   version="1.1"
   width="48"
   height="48"
   shape-rendering="crispEdges"
   id="svg726"
   sodipodi:docname="acetum-vinegar.svg"
   inkscape:version="1.1.2 (b8e25be833, 2022-02-05)"
   xmlns:inkscape="http://www.inkscape.org/namespaces/inkscape"
   xmlns:sodipodi="http://sodipodi.sourceforge.net/DTD/sodipodi-0.dtd"
   xmlns="http://www.w3.org/2000/svg"
   xmlns:svg="http://www.w3.org/2000/svg">
  <defs
     id="defs730" />
  <sodipodi:namedview
     id="namedview728"
     pagecolor="#505050"
     bordercolor="#eeeeee"
     borderopacity="1"
     inkscape:pageshadow="0"
     inkscape:pageopacity="0"
     inkscape:pagecheckerboard="0"
     showgrid="false"
     inkscape:zoom="17.3125"
     inkscape:cx="24"
     inkscape:cy="23.971119"
     inkscape:window-width="1920"
     inkscape:window-height="1017"
     inkscape:window-x="-8"
     inkscape:window-y="-8"
     inkscape:window-maximized="1"
     inkscape:current-layer="svg726" />
  <path
     id="rect2"
     d="M 24 7 L 24 8 L 23 8 L 22 8 L 21 8 L 20 8 L 19 8 L 19 9 L 18 9 L 18 10 L 19 10 L 20 10 L 21 10 L 21 11 L 21 12 L 22 12 L 22 13 L 22 14 L 22 15 L 22 16 L 22 17 L 22 18 L 22 19 L 22 20 L 22 21 L 22 22 L 21 22 L 20 22 L 19 22 L 18 22 L 17 22 L 16 22 L 15 22 L 14 22 L 13 22 L 12 22 L 11 22 L 11 21 L 10 21 L 10 20 L 10 19 L 9 19 L 9 18 L 8 18 L 8 19 L 8 20 L 7 20 L 7 21 L 7 22 L 7 23 L 7 24 L 7 25 L 7 26 L 7 27 L 7 28 L 7 29 L 8 29 L 8 30 L 8 31 L 9 31 L 9 30 L 10 30 L 10 29 L 10 28 L 11 28 L 11 27 L 12 27 L 13 27 L 14 27 L 15 27 L 16 27 L 17 27 L 18 27 L 19 27 L 20 27 L 21 27 L 21 28 L 21 29 L 22 29 L 22 30 L 22 31 L 22 32 L 22 33 L 22 34 L 22 35 L 22 36 L 22 37 L 21 37 L 21 38 L 20 38 L 20 39 L 19 39 L 18 39 L 18 40 L 19 40 L 19 41 L 20 41 L 21 41 L 22 41 L 23 41 L 24 41 L 25 41 L 26 41 L 27 41 L 28 41 L 29 41 L 29 40 L 30 40 L 30 39 L 29 39 L 28 39 L 27 39 L 27 38 L 26 38 L 26 37 L 26 36 L 26 35 L 26 34 L 27 34 L 27 33 L 26 33 L 26 32 L 26 31 L 26 30 L 26 29 L 26 28 L 26 27 L 27 27 L 28 27 L 29 27 L 30 27 L 31 27 L 32 27 L 33 27 L 34 27 L 35 27 L 36 27 L 37 27 L 38 27 L 38 28 L 39 28 L 39 29 L 39 30 L 40 30 L 40 29 L 41 29 L 41 28 L 41 27 L 41 26 L 41 25 L 41 24 L 41 23 L 41 22 L 41 21 L 41 20 L 40 20 L 40 19 L 39 19 L 39 20 L 38 20 L 38 21 L 37 21 L 37 22 L 36 22 L 35 22 L 34 22 L 33 22 L 32 22 L 31 22 L 30 22 L 29 22 L 28 22 L 27 22 L 27 21 L 26 21 L 26 20 L 26 19 L 26 18 L 26 17 L 26 16 L 26 15 L 26 14 L 26 13 L 26 12 L 27 12 L 27 11 L 27 10 L 28 10 L 29 10 L 30 10 L 31 10 L 31 9 L 30 9 L 30 8 L 29 8 L 28 8 L 28 7 L 27 7 L 26 7 L 25 7 L 24 7 z " />
</svg>
