<?xml version="1.0" encoding="UTF-8" standalone="no"?>
<svg
   version="1.1"
   width="64"
   height="64"
   shape-rendering="crispEdges"
   id="svg1100"
   sodipodi:docname="aes_viride-verdigris.svg"
   inkscape:version="1.1.2 (b8e25be833, 2022-02-05)"
   xmlns:inkscape="http://www.inkscape.org/namespaces/inkscape"
   xmlns:sodipodi="http://sodipodi.sourceforge.net/DTD/sodipodi-0.dtd"
   xmlns="http://www.w3.org/2000/svg"
   xmlns:svg="http://www.w3.org/2000/svg">
  <defs
     id="defs1104" />
  <sodipodi:namedview
     id="namedview1102"
     pagecolor="#505050"
     bordercolor="#eeeeee"
     borderopacity="1"
     inkscape:pageshadow="0"
     inkscape:pageopacity="0"
     inkscape:pagecheckerboard="0"
     showgrid="false"
     inkscape:zoom="12.984375"
     inkscape:cx="32"
     inkscape:cy="32.038508"
     inkscape:window-width="1920"
     inkscape:window-height="1017"
     inkscape:window-x="-8"
     inkscape:window-y="-8"
     inkscape:window-maximized="1"
     inkscape:current-layer="svg1100" />
  <path
     id="rect2"
     d="M 28 15 L 28 16 L 27 16 L 26 16 L 26 17 L 25 17 L 24 17 L 24 18 L 23 18 L 22 18 L 22 19 L 21 19 L 21 20 L 20 20 L 20 21 L 19 21 L 19 22 L 19 23 L 18 23 L 18 24 L 17 24 L 17 25 L 17 26 L 16 26 L 16 27 L 16 28 L 16 29 L 16 30 L 16 31 L 16 32 L 16 33 L 16 34 L 16 35 L 16 36 L 16 37 L 16 38 L 17 38 L 17 39 L 17 40 L 18 40 L 18 41 L 19 41 L 19 42 L 20 42 L 20 43 L 21 43 L 21 44 L 22 44 L 23 44 L 23 45 L 24 45 L 24 46 L 25 46 L 26 46 L 26 47 L 27 47 L 28 47 L 28 48 L 29 48 L 30 48 L 31 48 L 32 48 L 33 48 L 34 48 L 35 48 L 35 47 L 36 47 L 37 47 L 38 47 L 38 46 L 39 46 L 40 46 L 40 45 L 41 45 L 41 44 L 42 44 L 43 44 L 43 43 L 44 43 L 44 42 L 45 42 L 45 41 L 46 41 L 46 40 L 46 39 L 47 39 L 47 38 L 48 38 L 48 37 L 48 36 L 48 35 L 48 34 L 48 33 L 48 32 L 48 31 L 48 30 L 48 29 L 48 28 L 48 27 L 47 27 L 47 26 L 46 26 L 46 25 L 46 24 L 46 23 L 45 23 L 45 22 L 45 21 L 44 21 L 44 20 L 43 20 L 43 19 L 42 19 L 42 18 L 41 18 L 41 17 L 40 17 L 39 17 L 38 17 L 38 16 L 37 16 L 36 16 L 36 15 L 35 15 L 34 15 L 33 15 L 32 15 L 31 15 L 30 15 L 29 15 L 28 15 z M 26 19 L 27 19 L 28 19 L 29 19 L 30 19 L 30 20 L 30 21 L 31 21 L 31 22 L 31 23 L 31 24 L 31 25 L 31 26 L 31 27 L 31 28 L 31 29 L 31 30 L 30 30 L 29 30 L 28 30 L 27 30 L 26 30 L 25 30 L 24 30 L 23 30 L 22 30 L 21 30 L 21 29 L 21 28 L 21 27 L 21 26 L 22 26 L 22 25 L 22 24 L 23 24 L 23 23 L 23 22 L 24 22 L 24 21 L 25 21 L 25 20 L 26 20 L 26 19 z M 34 20 L 35 20 L 36 20 L 36 21 L 37 21 L 37 22 L 38 22 L 38 23 L 39 23 L 39 24 L 39 25 L 40 25 L 40 26 L 40 27 L 41 27 L 41 28 L 41 29 L 40 29 L 39 29 L 39 30 L 38 30 L 37 30 L 36 30 L 35 30 L 34 30 L 34 29 L 34 28 L 34 27 L 34 26 L 34 25 L 34 24 L 34 23 L 34 22 L 34 21 L 34 20 z M 23 32 L 24 32 L 25 32 L 26 32 L 27 32 L 28 32 L 29 32 L 30 32 L 30 33 L 31 33 L 31 34 L 31 35 L 31 36 L 31 37 L 31 38 L 31 39 L 31 40 L 31 41 L 31 42 L 30 42 L 30 43 L 29 43 L 29 42 L 28 42 L 27 42 L 27 41 L 26 41 L 26 40 L 25 40 L 25 39 L 25 38 L 24 38 L 24 37 L 24 36 L 23 36 L 23 35 L 23 34 L 22 34 L 22 33 L 23 33 L 23 32 z M 34 32 L 35 32 L 36 32 L 37 32 L 38 32 L 39 32 L 40 32 L 41 32 L 42 32 L 42 33 L 42 34 L 42 35 L 42 36 L 42 37 L 42 38 L 41 38 L 41 39 L 40 39 L 40 40 L 40 41 L 39 41 L 39 42 L 38 42 L 38 43 L 37 43 L 37 44 L 36 44 L 35 44 L 34 44 L 34 43 L 34 42 L 34 41 L 34 40 L 34 39 L 34 38 L 34 37 L 34 36 L 34 35 L 34 34 L 34 33 L 34 32 z " />
</svg>
