<?xml version="1.0" encoding="UTF-8" standalone="no"?>
<svg
   version="1.1"
   width="64"
   height="64"
   shape-rendering="crispEdges"
   id="svg892"
   sodipodi:docname="air.svg"
   inkscape:version="1.1.2 (b8e25be833, 2022-02-05)"
   xmlns:inkscape="http://www.inkscape.org/namespaces/inkscape"
   xmlns:sodipodi="http://sodipodi.sourceforge.net/DTD/sodipodi-0.dtd"
   xmlns="http://www.w3.org/2000/svg"
   xmlns:svg="http://www.w3.org/2000/svg">
  <defs
     id="defs896" />
  <sodipodi:namedview
     id="namedview894"
     pagecolor="#505050"
     bordercolor="#eeeeee"
     borderopacity="1"
     inkscape:pageshadow="0"
     inkscape:pageopacity="0"
     inkscape:pagecheckerboard="0"
     showgrid="false"
     inkscape:zoom="12.984375"
     inkscape:cx="32"
     inkscape:cy="32.038508"
     inkscape:window-width="1920"
     inkscape:window-height="1017"
     inkscape:window-x="-8"
     inkscape:window-y="-8"
     inkscape:window-maximized="1"
     inkscape:current-layer="svg892" />
  <path
     id="rect2"
     d="M 31 12 L 31 13 L 30 13 L 30 14 L 30 15 L 29 15 L 29 16 L 28 16 L 28 17 L 28 18 L 27 18 L 27 19 L 27 20 L 26 20 L 26 21 L 25 21 L 25 22 L 25 23 L 24 23 L 24 24 L 23 24 L 23 25 L 22 25 L 22 26 L 21 26 L 20 26 L 19 26 L 18 26 L 17 26 L 17 25 L 16 25 L 16 24 L 15 24 L 15 25 L 15 26 L 15 27 L 15 28 L 15 29 L 15 30 L 16 30 L 16 29 L 17 29 L 17 28 L 18 28 L 19 28 L 20 28 L 21 28 L 21 29 L 21 30 L 20 30 L 20 31 L 20 32 L 19 32 L 19 33 L 18 33 L 18 34 L 18 35 L 17 35 L 17 36 L 17 37 L 16 37 L 16 38 L 15 38 L 15 39 L 14 39 L 14 40 L 14 41 L 13 41 L 13 42 L 13 43 L 12 43 L 12 44 L 12 45 L 12 46 L 13 46 L 14 46 L 15 46 L 16 46 L 17 46 L 18 46 L 19 46 L 20 46 L 21 46 L 22 46 L 23 46 L 24 46 L 25 46 L 26 46 L 27 46 L 28 46 L 29 46 L 30 46 L 31 46 L 32 46 L 33 46 L 34 46 L 35 46 L 36 46 L 37 46 L 38 46 L 39 46 L 40 46 L 41 46 L 42 46 L 43 46 L 44 46 L 45 46 L 46 46 L 47 46 L 48 46 L 49 46 L 50 46 L 51 46 L 51 45 L 51 44 L 51 43 L 50 43 L 50 42 L 49 42 L 49 41 L 48 41 L 48 40 L 47 40 L 47 39 L 47 38 L 47 37 L 47 36 L 46 36 L 46 35 L 45 35 L 45 34 L 44 34 L 44 33 L 44 32 L 43 32 L 43 31 L 43 30 L 42 30 L 42 29 L 41 29 L 41 28 L 42 28 L 43 28 L 44 28 L 45 28 L 46 28 L 46 29 L 47 29 L 47 30 L 48 30 L 48 29 L 48 28 L 48 27 L 48 26 L 48 25 L 48 24 L 47 24 L 47 25 L 46 25 L 46 26 L 45 26 L 44 26 L 43 26 L 42 26 L 41 26 L 40 26 L 40 25 L 39 25 L 38 25 L 38 24 L 38 23 L 38 22 L 37 22 L 37 21 L 37 20 L 36 20 L 36 19 L 35 19 L 35 18 L 35 17 L 34 17 L 34 16 L 33 16 L 33 15 L 33 14 L 32 14 L 32 13 L 32 12 L 31 12 z M 31 18 L 32 18 L 32 19 L 32 20 L 33 20 L 33 21 L 33 22 L 34 22 L 34 23 L 35 23 L 35 24 L 35 25 L 36 25 L 36 26 L 35 26 L 34 26 L 33 26 L 32 26 L 31 26 L 30 26 L 29 26 L 28 26 L 27 26 L 26 26 L 26 25 L 27 25 L 27 24 L 28 24 L 28 23 L 28 22 L 29 22 L 29 21 L 29 20 L 30 20 L 30 19 L 31 19 L 31 18 z M 25 28 L 26 28 L 27 28 L 28 28 L 29 28 L 30 28 L 31 28 L 32 28 L 33 28 L 34 28 L 35 28 L 36 28 L 37 28 L 37 29 L 38 29 L 38 30 L 38 31 L 38 32 L 38 33 L 39 33 L 40 33 L 40 34 L 41 34 L 41 35 L 41 36 L 42 36 L 42 37 L 42 38 L 42 39 L 43 39 L 43 40 L 43 41 L 44 41 L 44 42 L 43 42 L 42 42 L 41 42 L 40 42 L 39 42 L 38 42 L 37 42 L 36 42 L 35 42 L 34 42 L 33 42 L 32 42 L 31 42 L 30 42 L 29 42 L 28 42 L 27 42 L 26 42 L 25 42 L 24 42 L 23 42 L 22 42 L 21 42 L 20 42 L 19 42 L 19 41 L 19 40 L 20 40 L 20 39 L 20 38 L 21 38 L 21 37 L 21 36 L 22 36 L 22 35 L 23 35 L 23 34 L 23 33 L 23 32 L 24 32 L 24 31 L 24 30 L 25 30 L 25 29 L 25 28 z " />
</svg>
