<?xml version="1.0" encoding="UTF-8" standalone="no"?>
<svg
   version="1.1"
   width="48"
   height="48"
   shape-rendering="crispEdges"
   id="svg616"
   sodipodi:docname="antimony.svg"
   inkscape:version="1.1.2 (b8e25be833, 2022-02-05)"
   xmlns:inkscape="http://www.inkscape.org/namespaces/inkscape"
   xmlns:sodipodi="http://sodipodi.sourceforge.net/DTD/sodipodi-0.dtd"
   xmlns="http://www.w3.org/2000/svg"
   xmlns:svg="http://www.w3.org/2000/svg">
  <defs
     id="defs620" />
  <sodipodi:namedview
     id="namedview618"
     pagecolor="#505050"
     bordercolor="#eeeeee"
     borderopacity="1"
     inkscape:pageshadow="0"
     inkscape:pageopacity="0"
     inkscape:pagecheckerboard="0"
     showgrid="false"
     inkscape:zoom="17.3125"
     inkscape:cx="24"
     inkscape:cy="23.971119"
     inkscape:window-width="1920"
     inkscape:window-height="1017"
     inkscape:window-x="-8"
     inkscape:window-y="-8"
     inkscape:window-maximized="1"
     inkscape:current-layer="svg616" />
  <path
     id="rect2"
     d="M 19 6 L 19 7 L 20 7 L 20 8 L 21 8 L 21 9 L 21 10 L 22 10 L 22 11 L 22 12 L 22 13 L 22 14 L 21 14 L 20 14 L 19 14 L 18 14 L 17 14 L 17 13 L 16 13 L 15 13 L 15 12 L 14 12 L 14 13 L 14 14 L 14 15 L 14 16 L 14 17 L 14 18 L 14 19 L 15 19 L 15 18 L 16 18 L 16 17 L 17 17 L 18 17 L 18 16 L 19 16 L 20 16 L 21 16 L 22 16 L 22 17 L 22 18 L 22 19 L 22 20 L 22 21 L 22 22 L 21 22 L 20 22 L 20 23 L 19 23 L 18 23 L 18 24 L 17 24 L 17 25 L 16 25 L 16 26 L 15 26 L 15 27 L 15 28 L 14 28 L 14 29 L 14 30 L 14 31 L 14 32 L 14 33 L 14 34 L 14 35 L 15 35 L 15 36 L 15 37 L 16 37 L 16 38 L 17 38 L 17 39 L 18 39 L 18 40 L 19 40 L 19 41 L 20 41 L 21 41 L 21 42 L 22 42 L 23 42 L 24 42 L 25 42 L 26 42 L 27 42 L 28 42 L 28 41 L 29 41 L 29 40 L 30 40 L 30 39 L 31 39 L 32 39 L 32 38 L 32 37 L 33 37 L 33 36 L 34 36 L 34 35 L 34 34 L 34 33 L 34 32 L 34 31 L 34 30 L 34 29 L 34 28 L 33 28 L 33 27 L 33 26 L 32 26 L 32 25 L 31 25 L 31 24 L 30 24 L 30 23 L 29 23 L 29 22 L 28 22 L 27 22 L 26 22 L 26 21 L 26 20 L 26 19 L 26 18 L 26 17 L 26 16 L 27 16 L 28 16 L 29 16 L 30 16 L 31 16 L 31 17 L 32 17 L 32 18 L 33 18 L 33 19 L 34 19 L 34 18 L 34 17 L 34 16 L 34 15 L 34 14 L 34 13 L 34 12 L 33 12 L 33 13 L 32 13 L 32 14 L 31 14 L 30 14 L 29 14 L 28 14 L 27 14 L 26 14 L 26 13 L 26 12 L 26 11 L 26 10 L 27 10 L 27 9 L 27 8 L 28 8 L 28 7 L 29 7 L 29 6 L 28 6 L 27 6 L 26 6 L 25 6 L 24 6 L 23 6 L 22 6 L 21 6 L 20 6 L 19 6 z M 21 24 L 22 24 L 23 24 L 24 24 L 25 24 L 26 24 L 27 24 L 27 25 L 28 25 L 28 26 L 29 26 L 29 27 L 29 28 L 30 28 L 30 29 L 30 30 L 30 31 L 30 32 L 30 33 L 30 34 L 30 35 L 29 35 L 29 36 L 28 36 L 28 37 L 27 37 L 27 38 L 26 38 L 26 39 L 25 39 L 24 39 L 23 39 L 22 39 L 21 39 L 21 38 L 20 38 L 20 37 L 19 37 L 19 36 L 19 35 L 18 35 L 18 34 L 18 33 L 18 32 L 18 31 L 18 30 L 18 29 L 19 29 L 19 28 L 19 27 L 20 27 L 20 26 L 20 25 L 21 25 L 21 24 z " />
</svg>
