<?xml version="1.0" encoding="UTF-8" standalone="no"?>
<svg
   version="1.1"
   width="48"
   height="48"
   shape-rendering="crispEdges"
   id="svg230"
   sodipodi:docname="arsenicum-arsenic.svg"
   inkscape:version="1.1.2 (b8e25be833, 2022-02-05)"
   xmlns:inkscape="http://www.inkscape.org/namespaces/inkscape"
   xmlns:sodipodi="http://sodipodi.sourceforge.net/DTD/sodipodi-0.dtd"
   xmlns="http://www.w3.org/2000/svg"
   xmlns:svg="http://www.w3.org/2000/svg">
  <defs
     id="defs234" />
  <sodipodi:namedview
     id="namedview232"
     pagecolor="#505050"
     bordercolor="#eeeeee"
     borderopacity="1"
     inkscape:pageshadow="0"
     inkscape:pageopacity="0"
     inkscape:pagecheckerboard="0"
     showgrid="false"
     inkscape:zoom="17.3125"
     inkscape:cx="24"
     inkscape:cy="23.971119"
     inkscape:window-width="1920"
     inkscape:window-height="1017"
     inkscape:window-x="-8"
     inkscape:window-y="-8"
     inkscape:window-maximized="1"
     inkscape:current-layer="svg230" />
  <path
     id="rect2"
     d="M 10 20 L 10 21 L 9 21 L 9 22 L 9 23 L 9 24 L 9 25 L 9 26 L 10 26 L 10 27 L 11 27 L 12 27 L 13 27 L 14 27 L 15 27 L 15 26 L 16 26 L 16 25 L 17 25 L 18 25 L 19 25 L 20 25 L 21 25 L 22 25 L 23 25 L 24 25 L 25 25 L 26 25 L 27 25 L 28 25 L 29 25 L 30 25 L 31 25 L 32 25 L 32 26 L 33 26 L 33 27 L 34 27 L 35 27 L 36 27 L 37 27 L 38 27 L 38 26 L 39 26 L 39 25 L 39 24 L 39 23 L 39 22 L 39 21 L 38 21 L 38 20 L 37 20 L 36 20 L 35 20 L 34 20 L 33 20 L 33 21 L 32 21 L 32 22 L 31 22 L 30 22 L 29 22 L 28 22 L 27 22 L 26 22 L 25 22 L 24 22 L 23 22 L 22 22 L 21 22 L 20 22 L 19 22 L 18 22 L 17 22 L 16 22 L 16 21 L 15 21 L 15 20 L 14 20 L 13 20 L 12 20 L 11 20 L 10 20 z M 13 21 L 14 21 L 14 22 L 14 23 L 14 24 L 14 25 L 13 25 L 13 26 L 12 26 L 11 26 L 11 25 L 11 24 L 11 23 L 11 22 L 12 22 L 13 22 L 13 21 z M 35 21 L 36 21 L 37 21 L 37 22 L 37 23 L 37 24 L 37 25 L 36 25 L 35 25 L 35 26 L 34 26 L 34 25 L 34 24 L 34 23 L 34 22 L 35 22 L 35 21 z " />
</svg>
