<?xml version="1.0" encoding="UTF-8" standalone="no"?>
<svg
   version="1.1"
   width="48"
   height="48"
   shape-rendering="crispEdges"
   id="svg342"
   sodipodi:docname="borax.svg"
   inkscape:version="1.1.2 (b8e25be833, 2022-02-05)"
   xmlns:inkscape="http://www.inkscape.org/namespaces/inkscape"
   xmlns:sodipodi="http://sodipodi.sourceforge.net/DTD/sodipodi-0.dtd"
   xmlns="http://www.w3.org/2000/svg"
   xmlns:svg="http://www.w3.org/2000/svg">
  <defs
     id="defs346" />
  <sodipodi:namedview
     id="namedview344"
     pagecolor="#505050"
     bordercolor="#eeeeee"
     borderopacity="1"
     inkscape:pageshadow="0"
     inkscape:pageopacity="0"
     inkscape:pagecheckerboard="0"
     showgrid="false"
     inkscape:zoom="17.3125"
     inkscape:cx="24"
     inkscape:cy="23.971119"
     inkscape:window-width="1920"
     inkscape:window-height="1017"
     inkscape:window-x="-8"
     inkscape:window-y="-8"
     inkscape:window-maximized="1"
     inkscape:current-layer="svg342" />
  <path
     id="rect2"
     d="M 16 12 L 16 13 L 15 13 L 14 13 L 14 14 L 13 14 L 12 14 L 12 15 L 13 15 L 14 15 L 15 15 L 16 15 L 17 15 L 18 15 L 19 15 L 20 15 L 21 15 L 21 16 L 22 16 L 22 17 L 22 18 L 22 19 L 22 20 L 22 21 L 22 22 L 22 23 L 21 23 L 21 24 L 20 24 L 20 25 L 19 25 L 19 26 L 18 26 L 18 27 L 17 27 L 17 28 L 16 28 L 16 29 L 15 29 L 14 29 L 14 30 L 13 30 L 13 31 L 13 32 L 14 32 L 14 33 L 15 33 L 16 33 L 16 32 L 17 32 L 17 31 L 17 30 L 18 30 L 18 29 L 19 29 L 19 28 L 20 28 L 20 27 L 21 27 L 21 28 L 22 28 L 22 29 L 22 30 L 22 31 L 22 32 L 22 33 L 22 34 L 23 34 L 23 33 L 24 33 L 24 32 L 25 32 L 25 31 L 26 31 L 26 30 L 27 30 L 27 29 L 28 29 L 28 28 L 29 28 L 29 27 L 30 27 L 31 27 L 31 26 L 32 26 L 32 25 L 32 24 L 31 24 L 31 23 L 30 23 L 29 23 L 29 24 L 28 24 L 28 25 L 28 26 L 27 26 L 27 27 L 26 27 L 26 28 L 25 28 L 25 27 L 25 26 L 25 25 L 25 24 L 25 23 L 25 22 L 25 21 L 25 20 L 25 19 L 25 18 L 25 17 L 25 16 L 26 16 L 26 15 L 27 15 L 28 15 L 29 15 L 30 15 L 31 15 L 32 15 L 32 14 L 33 14 L 34 14 L 34 13 L 35 13 L 36 13 L 36 12 L 35 12 L 34 12 L 33 12 L 32 12 L 31 12 L 30 12 L 29 12 L 28 12 L 27 12 L 26 12 L 25 12 L 24 12 L 23 12 L 22 12 L 21 12 L 20 12 L 19 12 L 18 12 L 17 12 L 16 12 z " />
</svg>
