<?xml version="1.0" encoding="UTF-8" standalone="no"?>
<svg
   version="1.1"
   width="48"
   height="48"
   shape-rendering="crispEdges"
   id="svg380"
   sodipodi:docname="calx-chalk.svg"
   inkscape:version="1.1.2 (b8e25be833, 2022-02-05)"
   xmlns:inkscape="http://www.inkscape.org/namespaces/inkscape"
   xmlns:sodipodi="http://sodipodi.sourceforge.net/DTD/sodipodi-0.dtd"
   xmlns="http://www.w3.org/2000/svg"
   xmlns:svg="http://www.w3.org/2000/svg">
  <defs
     id="defs384" />
  <sodipodi:namedview
     id="namedview382"
     pagecolor="#505050"
     bordercolor="#eeeeee"
     borderopacity="1"
     inkscape:pageshadow="0"
     inkscape:pageopacity="0"
     inkscape:pagecheckerboard="0"
     showgrid="false"
     inkscape:zoom="17.3125"
     inkscape:cx="24"
     inkscape:cy="23.971119"
     inkscape:window-width="1920"
     inkscape:window-height="1017"
     inkscape:window-x="-8"
     inkscape:window-y="-8"
     inkscape:window-maximized="1"
     inkscape:current-layer="svg380" />
  <path
     id="rect2"
     d="M 21 11 L 21 12 L 20 12 L 19 12 L 19 13 L 18 13 L 18 14 L 17 14 L 17 15 L 16 15 L 16 16 L 15 16 L 15 17 L 14 17 L 14 18 L 14 19 L 13 19 L 13 20 L 13 21 L 13 22 L 13 23 L 13 24 L 13 25 L 13 26 L 13 27 L 13 28 L 13 29 L 13 30 L 13 31 L 14 31 L 14 32 L 15 32 L 15 33 L 16 33 L 16 34 L 17 34 L 17 35 L 18 35 L 18 36 L 19 36 L 19 37 L 20 37 L 21 37 L 22 37 L 22 38 L 23 38 L 24 38 L 25 38 L 26 38 L 27 38 L 28 38 L 29 38 L 29 37 L 30 37 L 31 37 L 31 36 L 32 36 L 32 35 L 33 35 L 33 34 L 32 34 L 31 34 L 31 35 L 30 35 L 29 35 L 28 35 L 28 36 L 27 36 L 26 36 L 25 36 L 25 35 L 24 35 L 23 35 L 22 35 L 22 34 L 21 34 L 21 33 L 20 33 L 20 32 L 19 32 L 19 31 L 18 31 L 18 30 L 17 30 L 17 29 L 17 28 L 16 28 L 16 27 L 17 27 L 17 26 L 18 26 L 19 26 L 20 26 L 21 26 L 22 26 L 22 27 L 22 28 L 22 29 L 22 30 L 23 30 L 23 29 L 24 29 L 24 28 L 24 27 L 24 26 L 25 26 L 26 26 L 26 25 L 27 25 L 28 25 L 28 24 L 27 24 L 26 24 L 25 24 L 24 24 L 24 23 L 24 22 L 24 21 L 24 20 L 24 19 L 23 19 L 23 20 L 23 21 L 22 21 L 22 22 L 22 23 L 22 24 L 21 24 L 20 24 L 19 24 L 18 24 L 17 24 L 17 23 L 16 23 L 16 22 L 16 21 L 17 21 L 17 20 L 17 19 L 18 19 L 18 18 L 19 18 L 19 17 L 20 17 L 20 16 L 20 15 L 21 15 L 21 14 L 22 14 L 23 14 L 24 14 L 24 13 L 25 13 L 26 13 L 27 13 L 27 14 L 28 14 L 29 14 L 30 14 L 30 15 L 30 16 L 31 16 L 31 17 L 32 17 L 32 16 L 32 15 L 32 14 L 31 14 L 31 13 L 30 13 L 30 12 L 29 12 L 29 11 L 28 11 L 27 11 L 26 11 L 25 11 L 24 11 L 23 11 L 22 11 L 21 11 z " />
</svg>
