<?xml version="1.0" encoding="UTF-8" standalone="no"?>
<svg
   version="1.1"
   width="64"
   height="64"
   shape-rendering="crispEdges"
   id="svg882"
   sodipodi:docname="caput_mortum-worthless_remains.svg"
   inkscape:version="1.1.2 (b8e25be833, 2022-02-05)"
   xmlns:inkscape="http://www.inkscape.org/namespaces/inkscape"
   xmlns:sodipodi="http://sodipodi.sourceforge.net/DTD/sodipodi-0.dtd"
   xmlns="http://www.w3.org/2000/svg"
   xmlns:svg="http://www.w3.org/2000/svg">
  <defs
     id="defs886" />
  <sodipodi:namedview
     id="namedview884"
     pagecolor="#505050"
     bordercolor="#eeeeee"
     borderopacity="1"
     inkscape:pageshadow="0"
     inkscape:pageopacity="0"
     inkscape:pagecheckerboard="0"
     showgrid="false"
     inkscape:zoom="12.984375"
     inkscape:cx="32"
     inkscape:cy="32.038508"
     inkscape:window-width="1920"
     inkscape:window-height="1017"
     inkscape:window-x="-8"
     inkscape:window-y="-8"
     inkscape:window-maximized="1"
     inkscape:current-layer="svg882" />
  <path
     id="rect2"
     d="M 26 17 L 26 18 L 25 18 L 24 18 L 23 18 L 23 19 L 23 20 L 22 20 L 22 21 L 21 21 L 21 22 L 20 22 L 20 23 L 19 23 L 19 24 L 18 24 L 18 25 L 18 26 L 17 26 L 17 27 L 17 28 L 17 29 L 17 30 L 17 31 L 17 32 L 17 33 L 17 34 L 17 35 L 17 36 L 17 37 L 18 37 L 18 38 L 18 39 L 18 40 L 18 41 L 19 41 L 19 42 L 20 42 L 20 43 L 21 43 L 21 44 L 22 44 L 22 45 L 23 45 L 24 45 L 24 46 L 25 46 L 26 46 L 26 47 L 27 47 L 28 47 L 29 47 L 30 47 L 31 47 L 32 47 L 33 47 L 34 47 L 35 47 L 36 47 L 37 47 L 37 46 L 38 46 L 39 46 L 39 45 L 40 45 L 41 45 L 41 44 L 41 43 L 42 43 L 42 42 L 43 42 L 43 41 L 43 40 L 44 40 L 44 39 L 45 39 L 45 38 L 46 38 L 46 37 L 46 36 L 46 35 L 47 35 L 47 34 L 47 33 L 47 32 L 47 31 L 47 30 L 47 29 L 47 28 L 47 27 L 47 26 L 46 26 L 46 25 L 46 24 L 45 24 L 45 23 L 44 23 L 44 22 L 44 21 L 43 21 L 43 20 L 42 20 L 42 19 L 41 19 L 40 19 L 39 19 L 39 18 L 39 17 L 38 17 L 37 17 L 36 17 L 35 17 L 34 17 L 33 17 L 32 17 L 31 17 L 30 17 L 29 17 L 28 17 L 27 17 L 26 17 z M 26 20 L 27 20 L 28 20 L 29 20 L 30 20 L 31 20 L 32 20 L 33 20 L 34 20 L 35 20 L 35 21 L 36 21 L 36 22 L 37 22 L 37 23 L 38 23 L 38 24 L 39 24 L 39 25 L 40 25 L 40 26 L 41 26 L 41 27 L 41 28 L 41 29 L 41 30 L 41 31 L 41 32 L 41 33 L 41 34 L 41 35 L 41 36 L 41 37 L 41 38 L 41 39 L 41 40 L 40 40 L 40 41 L 39 41 L 39 42 L 38 42 L 38 43 L 37 43 L 36 43 L 36 44 L 35 44 L 34 44 L 33 44 L 32 44 L 31 44 L 30 44 L 30 43 L 29 43 L 28 43 L 28 42 L 27 42 L 27 41 L 26 41 L 25 41 L 25 40 L 25 39 L 24 39 L 24 38 L 24 37 L 23 37 L 23 36 L 22 36 L 22 35 L 22 34 L 22 33 L 21 33 L 21 32 L 21 31 L 21 30 L 21 29 L 21 28 L 21 27 L 21 26 L 22 26 L 22 25 L 22 24 L 23 24 L 23 23 L 23 22 L 24 22 L 24 21 L 25 21 L 26 21 L 26 20 z M 25 26 L 25 27 L 24 27 L 24 28 L 24 29 L 24 30 L 24 31 L 25 31 L 25 32 L 26 32 L 27 32 L 28 32 L 29 32 L 29 31 L 30 31 L 30 30 L 30 29 L 30 28 L 30 27 L 29 27 L 29 26 L 28 26 L 27 26 L 26 26 L 25 26 z M 34 26 L 34 27 L 33 27 L 33 28 L 33 29 L 33 30 L 33 31 L 34 31 L 34 32 L 35 32 L 36 32 L 37 32 L 38 32 L 38 31 L 39 31 L 39 30 L 39 29 L 39 28 L 39 27 L 38 27 L 38 26 L 37 26 L 36 26 L 35 26 L 34 26 z M 30 33 L 30 34 L 29 34 L 29 35 L 29 36 L 29 37 L 29 38 L 30 38 L 30 39 L 31 39 L 32 39 L 33 39 L 33 38 L 34 38 L 34 37 L 34 36 L 34 35 L 34 34 L 33 34 L 33 33 L 32 33 L 31 33 L 30 33 z " />
</svg>
