<?xml version="1.0" encoding="UTF-8" standalone="no"?>
<svg
   version="1.1"
   width="48"
   height="48"
   shape-rendering="crispEdges"
   id="svg414"
   sodipodi:docname="cera-wax.svg"
   inkscape:version="1.1.2 (b8e25be833, 2022-02-05)"
   xmlns:inkscape="http://www.inkscape.org/namespaces/inkscape"
   xmlns:sodipodi="http://sodipodi.sourceforge.net/DTD/sodipodi-0.dtd"
   xmlns="http://www.w3.org/2000/svg"
   xmlns:svg="http://www.w3.org/2000/svg">
  <defs
     id="defs418" />
  <sodipodi:namedview
     id="namedview416"
     pagecolor="#505050"
     bordercolor="#eeeeee"
     borderopacity="1"
     inkscape:pageshadow="0"
     inkscape:pageopacity="0"
     inkscape:pagecheckerboard="0"
     showgrid="false"
     inkscape:zoom="17.3125"
     inkscape:cx="24"
     inkscape:cy="23.971119"
     inkscape:window-width="1920"
     inkscape:window-height="1017"
     inkscape:window-x="-8"
     inkscape:window-y="-8"
     inkscape:window-maximized="1"
     inkscape:current-layer="svg414" />
  <path
     id="rect2"
     d="M 20 9 L 20 10 L 21 10 L 21 11 L 22 11 L 22 12 L 22 13 L 23 13 L 23 14 L 23 15 L 23 16 L 23 17 L 23 18 L 22 18 L 21 18 L 21 19 L 20 19 L 20 20 L 19 20 L 19 21 L 19 22 L 18 22 L 18 23 L 17 23 L 16 23 L 15 23 L 14 23 L 14 22 L 13 22 L 12 22 L 12 21 L 11 21 L 11 20 L 10 20 L 10 21 L 10 22 L 10 23 L 10 24 L 10 25 L 10 26 L 10 27 L 10 28 L 11 28 L 11 27 L 12 27 L 12 26 L 13 26 L 14 26 L 14 25 L 15 25 L 16 25 L 17 25 L 18 25 L 18 26 L 19 26 L 19 27 L 19 28 L 20 28 L 20 29 L 21 29 L 21 30 L 22 30 L 23 30 L 23 31 L 23 32 L 23 33 L 23 34 L 23 35 L 22 35 L 22 36 L 22 37 L 21 37 L 21 38 L 20 38 L 20 39 L 21 39 L 22 39 L 23 39 L 24 39 L 25 39 L 26 39 L 27 39 L 28 39 L 28 38 L 27 38 L 27 37 L 26 37 L 26 36 L 26 35 L 25 35 L 25 34 L 25 33 L 25 32 L 25 31 L 25 30 L 26 30 L 27 30 L 27 29 L 28 29 L 28 28 L 29 28 L 29 27 L 29 26 L 29 25 L 30 25 L 31 25 L 32 25 L 33 25 L 34 25 L 35 25 L 36 25 L 36 26 L 37 26 L 37 27 L 37 28 L 38 28 L 38 29 L 39 29 L 39 28 L 39 27 L 39 26 L 39 25 L 39 24 L 39 23 L 39 22 L 39 21 L 39 20 L 38 20 L 38 21 L 37 21 L 37 22 L 36 22 L 35 22 L 35 23 L 34 23 L 33 23 L 32 23 L 31 23 L 30 23 L 30 22 L 29 22 L 29 21 L 29 20 L 28 20 L 28 19 L 27 19 L 27 18 L 26 18 L 25 18 L 25 17 L 25 16 L 25 15 L 25 14 L 25 13 L 26 13 L 26 12 L 26 11 L 27 11 L 27 10 L 28 10 L 28 9 L 27 9 L 26 9 L 25 9 L 24 9 L 23 9 L 22 9 L 21 9 L 20 9 z M 22 20 L 23 20 L 24 20 L 24 21 L 25 21 L 26 21 L 26 22 L 26 23 L 27 23 L 27 24 L 27 25 L 27 26 L 27 27 L 26 27 L 26 28 L 25 28 L 24 28 L 24 27 L 23 27 L 22 27 L 22 26 L 22 25 L 21 25 L 21 24 L 21 23 L 21 22 L 21 21 L 22 21 L 22 20 z " />
</svg>
