<?xml version="1.0" encoding="UTF-8" standalone="no"?>
<svg
   version="1.1"
   width="48"
   height="48"
   shape-rendering="crispEdges"
   id="svg474"
   sodipodi:docname="cinis-ash.svg"
   inkscape:version="1.1.2 (b8e25be833, 2022-02-05)"
   xmlns:inkscape="http://www.inkscape.org/namespaces/inkscape"
   xmlns:sodipodi="http://sodipodi.sourceforge.net/DTD/sodipodi-0.dtd"
   xmlns="http://www.w3.org/2000/svg"
   xmlns:svg="http://www.w3.org/2000/svg">
  <defs
     id="defs478" />
  <sodipodi:namedview
     id="namedview476"
     pagecolor="#505050"
     bordercolor="#eeeeee"
     borderopacity="1"
     inkscape:pageshadow="0"
     inkscape:pageopacity="0"
     inkscape:pagecheckerboard="0"
     showgrid="false"
     inkscape:zoom="17.3125"
     inkscape:cx="24"
     inkscape:cy="23.971119"
     inkscape:window-width="1920"
     inkscape:window-height="1017"
     inkscape:window-x="-8"
     inkscape:window-y="-8"
     inkscape:window-maximized="1"
     inkscape:current-layer="svg474" />
  <path
     id="rect2"
     d="M 19 11 L 19 12 L 18 12 L 18 13 L 18 14 L 18 15 L 17 15 L 17 16 L 17 17 L 18 17 L 18 18 L 18 19 L 18 20 L 18 21 L 17 21 L 17 22 L 16 22 L 15 22 L 14 22 L 13 22 L 12 22 L 11 22 L 10 22 L 10 23 L 9 23 L 9 24 L 10 24 L 11 24 L 12 24 L 13 24 L 14 24 L 15 24 L 16 24 L 17 24 L 18 24 L 18 25 L 18 26 L 18 27 L 18 28 L 18 29 L 18 30 L 18 31 L 18 32 L 18 33 L 18 34 L 17 34 L 17 35 L 17 36 L 18 36 L 18 37 L 18 38 L 19 38 L 20 38 L 21 38 L 22 38 L 23 38 L 24 38 L 25 38 L 26 38 L 27 38 L 28 38 L 29 38 L 30 38 L 31 38 L 32 38 L 33 38 L 34 38 L 35 38 L 36 38 L 36 37 L 37 37 L 37 36 L 38 36 L 38 35 L 37 35 L 36 35 L 35 35 L 34 35 L 34 34 L 33 34 L 32 34 L 32 35 L 31 35 L 30 35 L 29 35 L 28 35 L 27 35 L 26 35 L 25 35 L 24 35 L 23 35 L 22 35 L 22 34 L 22 33 L 22 32 L 22 31 L 22 30 L 22 29 L 22 28 L 22 27 L 22 26 L 22 25 L 22 24 L 23 24 L 24 24 L 25 24 L 26 24 L 26 25 L 27 25 L 28 25 L 28 24 L 29 24 L 30 24 L 31 24 L 31 23 L 30 23 L 30 22 L 29 22 L 29 21 L 28 21 L 27 21 L 26 21 L 25 21 L 24 21 L 23 21 L 22 21 L 22 20 L 22 19 L 22 18 L 22 17 L 21 17 L 21 16 L 21 15 L 22 15 L 23 15 L 24 15 L 24 14 L 25 14 L 26 14 L 27 14 L 28 14 L 29 14 L 30 14 L 31 14 L 32 14 L 33 14 L 34 14 L 35 14 L 36 14 L 36 13 L 37 13 L 37 12 L 36 12 L 36 11 L 35 11 L 34 11 L 33 11 L 32 11 L 31 11 L 31 12 L 30 12 L 29 12 L 28 12 L 27 12 L 26 12 L 25 12 L 24 12 L 23 12 L 22 12 L 22 11 L 21 11 L 20 11 L 19 11 z " />
</svg>
