<?xml version="1.0" encoding="UTF-8" standalone="no"?>
<svg
   version="1.1"
   width="64"
   height="64"
   shape-rendering="crispEdges"
   id="svg888"
   sodipodi:docname="earth.svg"
   inkscape:version="1.1.2 (b8e25be833, 2022-02-05)"
   xmlns:inkscape="http://www.inkscape.org/namespaces/inkscape"
   xmlns:sodipodi="http://sodipodi.sourceforge.net/DTD/sodipodi-0.dtd"
   xmlns="http://www.w3.org/2000/svg"
   xmlns:svg="http://www.w3.org/2000/svg">
  <defs
     id="defs892" />
  <sodipodi:namedview
     id="namedview890"
     pagecolor="#505050"
     bordercolor="#eeeeee"
     borderopacity="1"
     inkscape:pageshadow="0"
     inkscape:pageopacity="0"
     inkscape:pagecheckerboard="0"
     showgrid="false"
     inkscape:zoom="12.984375"
     inkscape:cx="32"
     inkscape:cy="32.038508"
     inkscape:window-width="1920"
     inkscape:window-height="1017"
     inkscape:window-x="-8"
     inkscape:window-y="-8"
     inkscape:window-maximized="1"
     inkscape:current-layer="svg888" />
  <path
     id="rect2"
     d="M 12 15 L 12 16 L 12 17 L 13 17 L 13 18 L 13 19 L 14 19 L 14 20 L 15 20 L 15 21 L 15 22 L 16 22 L 16 23 L 16 24 L 17 24 L 17 25 L 17 26 L 18 26 L 18 27 L 19 27 L 19 28 L 20 28 L 20 29 L 20 30 L 21 30 L 21 31 L 21 32 L 21 33 L 20 33 L 19 33 L 18 33 L 17 33 L 16 33 L 16 32 L 15 32 L 15 31 L 14 31 L 14 32 L 14 33 L 14 34 L 14 35 L 14 36 L 14 37 L 15 37 L 15 36 L 16 36 L 16 35 L 17 35 L 18 35 L 19 35 L 20 35 L 21 35 L 22 35 L 23 35 L 23 36 L 23 37 L 24 37 L 24 38 L 25 38 L 25 39 L 25 40 L 26 40 L 26 41 L 26 42 L 27 42 L 27 43 L 27 44 L 28 44 L 28 45 L 29 45 L 29 46 L 30 46 L 30 47 L 30 48 L 30 49 L 31 49 L 32 49 L 33 49 L 33 48 L 33 47 L 33 46 L 34 46 L 34 45 L 34 44 L 35 44 L 35 43 L 35 42 L 36 42 L 36 41 L 37 41 L 37 40 L 38 40 L 38 39 L 38 38 L 39 38 L 39 37 L 39 36 L 40 36 L 40 35 L 41 35 L 42 35 L 43 35 L 44 35 L 45 35 L 46 35 L 46 36 L 47 36 L 47 37 L 48 37 L 48 36 L 48 35 L 48 34 L 48 33 L 48 32 L 48 31 L 47 31 L 47 32 L 46 32 L 46 33 L 45 33 L 44 33 L 43 33 L 42 33 L 41 33 L 41 32 L 42 32 L 42 31 L 43 31 L 43 30 L 43 29 L 44 29 L 44 28 L 44 27 L 45 27 L 45 26 L 45 25 L 46 25 L 46 24 L 47 24 L 47 23 L 48 23 L 48 22 L 48 21 L 49 21 L 49 20 L 49 19 L 50 19 L 50 18 L 50 17 L 51 17 L 51 16 L 51 15 L 50 15 L 49 15 L 48 15 L 47 15 L 46 15 L 45 15 L 44 15 L 43 15 L 42 15 L 41 15 L 40 15 L 39 15 L 38 15 L 37 15 L 36 15 L 35 15 L 34 15 L 33 15 L 32 15 L 31 15 L 30 15 L 29 15 L 28 15 L 27 15 L 26 15 L 25 15 L 24 15 L 23 15 L 22 15 L 21 15 L 20 15 L 19 15 L 18 15 L 17 15 L 16 15 L 15 15 L 14 15 L 13 15 L 12 15 z M 19 19 L 20 19 L 21 19 L 22 19 L 23 19 L 24 19 L 25 19 L 26 19 L 27 19 L 28 19 L 29 19 L 30 19 L 31 19 L 32 19 L 33 19 L 34 19 L 35 19 L 36 19 L 37 19 L 38 19 L 39 19 L 40 19 L 41 19 L 42 19 L 43 19 L 44 19 L 44 20 L 44 21 L 43 21 L 43 22 L 43 23 L 42 23 L 42 24 L 42 25 L 41 25 L 41 26 L 41 27 L 40 27 L 40 28 L 39 28 L 39 29 L 39 30 L 38 30 L 38 31 L 38 32 L 37 32 L 37 33 L 36 33 L 35 33 L 34 33 L 33 33 L 32 33 L 31 33 L 30 33 L 29 33 L 28 33 L 27 33 L 26 33 L 25 33 L 25 32 L 25 31 L 25 30 L 24 30 L 24 29 L 23 29 L 23 28 L 23 27 L 22 27 L 22 26 L 22 25 L 21 25 L 21 24 L 21 23 L 20 23 L 20 22 L 20 21 L 19 21 L 19 20 L 19 19 z M 27 35 L 28 35 L 29 35 L 30 35 L 31 35 L 32 35 L 33 35 L 34 35 L 35 35 L 36 35 L 36 36 L 35 36 L 35 37 L 35 38 L 35 39 L 34 39 L 34 40 L 33 40 L 33 41 L 33 42 L 32 42 L 32 43 L 32 44 L 31 44 L 31 43 L 31 42 L 30 42 L 30 41 L 30 40 L 29 40 L 29 39 L 29 38 L 28 38 L 28 37 L 28 36 L 27 36 L 27 35 z " />
</svg>
