<?xml version="1.0" encoding="UTF-8" standalone="no"?>
<svg
   version="1.1"
   width="64"
   height="64"
   shape-rendering="crispEdges"
   id="svg732"
   sodipodi:docname="fire.svg"
   inkscape:version="1.1.2 (b8e25be833, 2022-02-05)"
   xmlns:inkscape="http://www.inkscape.org/namespaces/inkscape"
   xmlns:sodipodi="http://sodipodi.sourceforge.net/DTD/sodipodi-0.dtd"
   xmlns="http://www.w3.org/2000/svg"
   xmlns:svg="http://www.w3.org/2000/svg">
  <defs
     id="defs736" />
  <sodipodi:namedview
     id="namedview734"
     pagecolor="#505050"
     bordercolor="#eeeeee"
     borderopacity="1"
     inkscape:pageshadow="0"
     inkscape:pageopacity="0"
     inkscape:pagecheckerboard="0"
     showgrid="false"
     inkscape:zoom="12.984375"
     inkscape:cx="32"
     inkscape:cy="32.038508"
     inkscape:window-width="1920"
     inkscape:window-height="1017"
     inkscape:window-x="-8"
     inkscape:window-y="-8"
     inkscape:window-maximized="1"
     inkscape:current-layer="svg732" />
  <path
     id="rect2"
     d="M 32 14 L 32 15 L 31 15 L 31 16 L 30 16 L 30 17 L 30 18 L 29 18 L 29 19 L 28 19 L 28 20 L 28 21 L 28 22 L 27 22 L 27 23 L 26 23 L 26 24 L 25 24 L 25 25 L 25 26 L 24 26 L 24 27 L 23 27 L 23 28 L 23 29 L 23 30 L 22 30 L 22 31 L 21 31 L 21 32 L 21 33 L 20 33 L 20 34 L 20 35 L 19 35 L 19 36 L 18 36 L 18 37 L 18 38 L 17 38 L 17 39 L 16 39 L 16 40 L 16 41 L 15 41 L 15 42 L 15 43 L 15 44 L 14 44 L 14 45 L 13 45 L 13 46 L 13 47 L 14 47 L 15 47 L 16 47 L 17 47 L 18 47 L 19 47 L 20 47 L 21 47 L 22 47 L 23 47 L 24 47 L 25 47 L 26 47 L 27 47 L 28 47 L 29 47 L 30 47 L 31 47 L 32 47 L 33 47 L 34 47 L 35 47 L 36 47 L 37 47 L 38 47 L 39 47 L 40 47 L 41 47 L 42 47 L 43 47 L 44 47 L 45 47 L 46 47 L 47 47 L 48 47 L 49 47 L 50 47 L 51 47 L 52 47 L 52 46 L 51 46 L 51 45 L 50 45 L 50 44 L 50 43 L 49 43 L 49 42 L 48 42 L 48 41 L 48 40 L 48 39 L 47 39 L 47 38 L 47 37 L 46 37 L 46 36 L 46 35 L 45 35 L 45 34 L 44 34 L 44 33 L 44 32 L 43 32 L 43 31 L 42 31 L 42 30 L 42 29 L 41 29 L 41 28 L 40 28 L 40 27 L 40 26 L 39 26 L 39 25 L 39 24 L 38 24 L 38 23 L 37 23 L 37 22 L 37 21 L 36 21 L 36 20 L 36 19 L 35 19 L 35 18 L 34 18 L 34 17 L 34 16 L 34 15 L 33 15 L 33 14 L 32 14 z M 32 19 L 33 19 L 33 20 L 33 21 L 34 21 L 34 22 L 34 23 L 34 24 L 35 24 L 35 25 L 36 25 L 36 26 L 36 27 L 37 27 L 37 28 L 37 29 L 38 29 L 38 30 L 38 31 L 38 32 L 39 32 L 39 33 L 40 33 L 40 34 L 40 35 L 41 35 L 41 36 L 41 37 L 42 37 L 42 38 L 43 38 L 43 39 L 43 40 L 43 41 L 44 41 L 44 42 L 44 43 L 43 43 L 42 43 L 41 43 L 40 43 L 39 43 L 38 43 L 37 43 L 36 43 L 35 43 L 34 43 L 33 43 L 32 43 L 31 43 L 30 43 L 29 43 L 28 43 L 27 43 L 26 43 L 25 43 L 24 43 L 23 43 L 22 43 L 21 43 L 20 43 L 20 42 L 20 41 L 21 41 L 21 40 L 21 39 L 22 39 L 22 38 L 22 37 L 23 37 L 23 36 L 24 36 L 24 35 L 24 34 L 24 33 L 25 33 L 25 32 L 25 31 L 26 31 L 26 30 L 27 30 L 27 29 L 27 28 L 28 28 L 28 27 L 28 26 L 28 25 L 29 25 L 29 24 L 30 24 L 30 23 L 30 22 L 31 22 L 31 21 L 31 20 L 32 20 L 32 19 z " />
</svg>
