<?xml version="1.0" encoding="UTF-8" standalone="no"?>
<svg
   version="1.1"
   width="64"
   height="64"
   shape-rendering="crispEdges"
   id="svg858"
   sodipodi:docname="gold-sun1.svg"
   inkscape:version="1.1.2 (b8e25be833, 2022-02-05)"
   xmlns:inkscape="http://www.inkscape.org/namespaces/inkscape"
   xmlns:sodipodi="http://sodipodi.sourceforge.net/DTD/sodipodi-0.dtd"
   xmlns="http://www.w3.org/2000/svg"
   xmlns:svg="http://www.w3.org/2000/svg">
  <defs
     id="defs862" />
  <sodipodi:namedview
     id="namedview860"
     pagecolor="#505050"
     bordercolor="#eeeeee"
     borderopacity="1"
     inkscape:pageshadow="0"
     inkscape:pageopacity="0"
     inkscape:pagecheckerboard="0"
     showgrid="false"
     inkscape:zoom="12.984375"
     inkscape:cx="32"
     inkscape:cy="32.038508"
     inkscape:window-width="1920"
     inkscape:window-height="1017"
     inkscape:window-x="-8"
     inkscape:window-y="-8"
     inkscape:window-maximized="1"
     inkscape:current-layer="svg858" />
  <path
     id="rect2"
     d="m 28,15 v 1 h -1 -1 v 1 h -1 -1 v 1.000001 H 23 22 V 19 h -1 v 1 h -1 v 1 h -1 v 1 1 h -1 v 1 H 17 V 24.999999 26 h -1 v 1 1 1 1 1 1 1 1 1 1 1 1.000001 h 1 V 39 40 h 1 v 1 h 1 v 1 h 1 v 1 h 1 v 1 h 1 1 v 0.999999 h 1 V 46 h 1 1 v 1 h 1 1 v 1 h 1 1 1 1 1 1 1 v -1 h 1 1 1 v -1 h 1 1 v -1.000001 h 1 V 44 h 1 1 v -1 h 1 v -1 h 1 v -1 h 1 v -1 -1 h 1 v -0.999999 h 1 V 37 36 35 34 33 32 31 30 29 28 27 H 47 V 26 H 46 V 24.999999 24 23 H 45 V 22 21 H 44 V 20 H 43 V 19 H 42 V 18.000001 H 41 V 17 h -1 -1 -1 v -1 h -1 -1 v -1 h -1 -1 -1 -1 -1 -1 -1 z m -2,3.000001 h 1 1 1 1 1 V 19 h 1 1 1 v 1 h 1 1 v 1 h 1 v 1 h 1 v 1 h 1 v 1 0.999999 h 1 V 26 27 h 1 v 1 1 1 1 h 1 v 1 1 1 1 h 1 v 1 1 1.000001 V 39 h -1 v 1 1 1 h -1 v 1 h -1 -1 v 1 H 38 37 36 35 34 33 V 43 H 32 31 30 29 V 42 H 28 27 V 41 H 26 V 40 H 25 V 39 38.000001 H 24 V 37 36 H 23 V 35 34 H 22 V 33 32 31 30 H 21 V 29 28 27 26 24.999999 24 h 1 v -1 -1 h 1 v -1 h 1 v -1 h 1 v -1 h 1 z M 30,29 v 1 h -1 v 1 1 1 h 1 v 1 h 1 1 1 v -1 h 1 v -1 -1 -1 h -1 v -1 h -1 -1 z"
     style="stroke-width:1" />
</svg>
