<?xml version="1.0" encoding="UTF-8" standalone="no"?>
<svg
   version="1.1"
   width="48"
   height="48"
   shape-rendering="crispEdges"
   id="svg620"
   sodipodi:docname="iron-mars.svg"
   inkscape:version="1.1.2 (b8e25be833, 2022-02-05)"
   xmlns:inkscape="http://www.inkscape.org/namespaces/inkscape"
   xmlns:sodipodi="http://sodipodi.sourceforge.net/DTD/sodipodi-0.dtd"
   xmlns="http://www.w3.org/2000/svg"
   xmlns:svg="http://www.w3.org/2000/svg">
  <defs
     id="defs624" />
  <sodipodi:namedview
     id="namedview622"
     pagecolor="#505050"
     bordercolor="#eeeeee"
     borderopacity="1"
     inkscape:pageshadow="0"
     inkscape:pageopacity="0"
     inkscape:pagecheckerboard="0"
     showgrid="false"
     inkscape:zoom="17.3125"
     inkscape:cx="24"
     inkscape:cy="23.971119"
     inkscape:window-width="1920"
     inkscape:window-height="1017"
     inkscape:window-x="-8"
     inkscape:window-y="-8"
     inkscape:window-maximized="1"
     inkscape:current-layer="svg620" />
  <path
     id="rect2"
     d="M 31 7 L 31 8 L 32 8 L 32 7 L 31 7 z M 31 8 L 30 8 L 29 8 L 29 9 L 28 9 L 28 10 L 28 11 L 28 12 L 29 12 L 29 13 L 30 13 L 31 13 L 31 14 L 32 14 L 32 15 L 31 15 L 31 16 L 30 16 L 30 17 L 29 17 L 29 18 L 28 18 L 28 17 L 27 17 L 26 17 L 26 16 L 25 16 L 24 16 L 24 15 L 23 15 L 22 15 L 21 15 L 20 15 L 19 15 L 18 15 L 17 15 L 16 15 L 15 15 L 15 16 L 14 16 L 13 16 L 13 17 L 12 17 L 12 18 L 11 18 L 11 19 L 10 19 L 10 20 L 9 20 L 9 21 L 9 22 L 9 23 L 9 24 L 8 24 L 8 25 L 8 26 L 8 27 L 8 28 L 8 29 L 9 29 L 9 30 L 9 31 L 9 32 L 9 33 L 10 33 L 10 34 L 11 34 L 11 35 L 12 35 L 12 36 L 12 37 L 13 37 L 14 37 L 14 38 L 15 38 L 16 38 L 17 38 L 18 38 L 18 39 L 19 39 L 20 39 L 21 39 L 22 39 L 22 38 L 23 38 L 24 38 L 25 38 L 26 38 L 26 37 L 27 37 L 27 36 L 28 36 L 28 35 L 29 35 L 29 34 L 30 34 L 30 33 L 30 32 L 31 32 L 31 31 L 31 30 L 31 29 L 31 28 L 31 27 L 31 26 L 31 25 L 31 24 L 31 23 L 31 22 L 30 22 L 30 21 L 30 20 L 30 19 L 31 19 L 31 18 L 32 18 L 32 17 L 33 17 L 33 16 L 34 16 L 34 17 L 34 18 L 35 18 L 35 19 L 36 19 L 36 20 L 37 20 L 38 20 L 38 19 L 39 19 L 39 18 L 38 18 L 37 18 L 36 18 L 36 17 L 36 16 L 35 16 L 35 15 L 35 14 L 36 14 L 37 14 L 37 13 L 37 12 L 38 12 L 38 11 L 38 10 L 37 10 L 36 10 L 36 11 L 35 11 L 34 11 L 34 12 L 34 13 L 33 13 L 32 13 L 32 12 L 31 12 L 30 12 L 30 11 L 29 11 L 29 10 L 30 10 L 30 9 L 31 9 L 31 8 z M 38 10 L 39 10 L 39 9 L 38 9 L 38 10 z M 39 18 L 40 18 L 40 17 L 39 17 L 39 18 z M 40 17 L 41 17 L 41 16 L 40 16 L 40 17 z M 16 17 L 17 17 L 18 17 L 19 17 L 19 18 L 20 18 L 21 18 L 21 19 L 22 19 L 23 19 L 23 20 L 23 21 L 24 21 L 24 22 L 25 22 L 25 23 L 26 23 L 26 24 L 26 25 L 26 26 L 27 26 L 27 27 L 27 28 L 27 29 L 27 30 L 27 31 L 27 32 L 27 33 L 27 34 L 26 34 L 26 35 L 25 35 L 24 35 L 24 36 L 23 36 L 22 36 L 21 36 L 20 36 L 20 35 L 19 35 L 18 35 L 18 34 L 17 34 L 17 33 L 16 33 L 16 32 L 16 31 L 15 31 L 15 30 L 15 29 L 14 29 L 14 28 L 14 27 L 14 26 L 14 25 L 13 25 L 13 24 L 13 23 L 13 22 L 14 22 L 14 21 L 14 20 L 14 19 L 15 19 L 15 18 L 16 18 L 16 17 z " />
</svg>
