<?xml version="1.0" encoding="UTF-8" standalone="no"?>
<svg
   version="1.1"
   width="48"
   height="48"
   shape-rendering="crispEdges"
   id="svg532"
   sodipodi:docname="lead-saturn.svg"
   inkscape:version="1.1.2 (b8e25be833, 2022-02-05)"
   xmlns:inkscape="http://www.inkscape.org/namespaces/inkscape"
   xmlns:sodipodi="http://sodipodi.sourceforge.net/DTD/sodipodi-0.dtd"
   xmlns="http://www.w3.org/2000/svg"
   xmlns:svg="http://www.w3.org/2000/svg">
  <defs
     id="defs536" />
  <sodipodi:namedview
     id="namedview534"
     pagecolor="#505050"
     bordercolor="#eeeeee"
     borderopacity="1"
     inkscape:pageshadow="0"
     inkscape:pageopacity="0"
     inkscape:pagecheckerboard="0"
     showgrid="false"
     inkscape:zoom="17.3125"
     inkscape:cx="24"
     inkscape:cy="23.971119"
     inkscape:window-width="1920"
     inkscape:window-height="1017"
     inkscape:window-x="-8"
     inkscape:window-y="-8"
     inkscape:window-maximized="1"
     inkscape:current-layer="svg532" />
  <path
     id="rect2"
     d="M 19 6 L 19 7 L 18 7 L 17 7 L 16 7 L 15 7 L 15 8 L 16 8 L 16 9 L 17 9 L 17 10 L 17 11 L 17 12 L 16 12 L 15 12 L 14 12 L 13 12 L 12 12 L 11 12 L 10 12 L 9 12 L 9 13 L 10 13 L 11 13 L 11 14 L 12 14 L 13 14 L 14 14 L 15 14 L 16 14 L 17 14 L 18 14 L 18 15 L 18 16 L 18 17 L 18 18 L 18 19 L 18 20 L 18 21 L 18 22 L 18 23 L 18 24 L 18 25 L 18 26 L 18 27 L 19 27 L 20 27 L 21 27 L 22 27 L 23 27 L 23 26 L 23 25 L 23 24 L 24 24 L 24 23 L 24 22 L 25 22 L 25 21 L 26 21 L 26 20 L 27 20 L 28 20 L 29 20 L 29 21 L 29 22 L 30 22 L 30 23 L 30 24 L 30 25 L 30 26 L 30 27 L 30 28 L 29 28 L 29 29 L 28 29 L 28 30 L 27 30 L 27 31 L 27 32 L 26 32 L 26 33 L 26 34 L 25 34 L 25 35 L 24 35 L 23 35 L 23 36 L 22 36 L 22 37 L 21 37 L 20 37 L 20 38 L 19 38 L 19 39 L 18 39 L 17 39 L 16 39 L 16 40 L 17 40 L 18 40 L 19 40 L 20 40 L 21 40 L 21 39 L 22 39 L 23 39 L 23 38 L 24 38 L 25 38 L 25 37 L 26 37 L 27 37 L 27 36 L 27 35 L 28 35 L 29 35 L 29 34 L 30 34 L 31 34 L 31 33 L 31 32 L 32 32 L 32 31 L 32 30 L 33 30 L 33 29 L 33 28 L 34 28 L 34 27 L 34 26 L 34 25 L 34 24 L 34 23 L 34 22 L 34 21 L 33 21 L 33 20 L 33 19 L 32 19 L 32 18 L 31 18 L 30 18 L 29 18 L 28 18 L 27 18 L 27 19 L 26 19 L 25 19 L 24 19 L 24 20 L 23 20 L 23 19 L 22 19 L 22 18 L 22 17 L 22 16 L 22 15 L 22 14 L 23 14 L 24 14 L 25 14 L 26 14 L 27 14 L 28 14 L 29 14 L 30 14 L 31 14 L 32 14 L 33 14 L 34 14 L 35 14 L 35 15 L 36 15 L 36 16 L 37 16 L 37 15 L 37 14 L 37 13 L 37 12 L 37 11 L 37 10 L 36 10 L 36 11 L 35 11 L 35 12 L 34 12 L 33 12 L 32 12 L 31 12 L 30 12 L 29 12 L 28 12 L 27 12 L 26 12 L 25 12 L 24 12 L 23 12 L 23 11 L 22 11 L 22 10 L 22 9 L 23 9 L 23 8 L 24 8 L 24 7 L 23 7 L 22 7 L 21 7 L 21 6 L 20 6 L 19 6 z M 16 40 L 15 40 L 15 41 L 16 41 L 16 40 z " />
</svg>
