<?xml version="1.0" encoding="UTF-8" standalone="no"?>
<svg
   version="1.1"
   width="64"
   height="64"
   shape-rendering="crispEdges"
   id="svg450"
   sodipodi:docname="mercury-quicksilver.svg"
   inkscape:version="1.1.2 (b8e25be833, 2022-02-05)"
   xmlns:inkscape="http://www.inkscape.org/namespaces/inkscape"
   xmlns:sodipodi="http://sodipodi.sourceforge.net/DTD/sodipodi-0.dtd"
   xmlns="http://www.w3.org/2000/svg"
   xmlns:svg="http://www.w3.org/2000/svg">
  <defs
     id="defs454" />
  <sodipodi:namedview
     id="namedview452"
     pagecolor="#505050"
     bordercolor="#eeeeee"
     borderopacity="1"
     inkscape:pageshadow="0"
     inkscape:pageopacity="0"
     inkscape:pagecheckerboard="0"
     showgrid="false"
     inkscape:zoom="12.984375"
     inkscape:cx="32"
     inkscape:cy="32.038508"
     inkscape:window-width="1920"
     inkscape:window-height="1017"
     inkscape:window-x="-8"
     inkscape:window-y="-8"
     inkscape:window-maximized="1"
     inkscape:current-layer="svg450" />
  <path
     id="rect2"
     d="M 24 15 L 24 16 L 25 16 L 25 15 L 24 15 z M 24 16 L 23 16 L 23 17 L 23 18 L 24 18 L 24 19 L 25 19 L 25 20 L 25 21 L 26 21 L 26 22 L 27 22 L 27 23 L 27 24 L 26 24 L 26 25 L 25 25 L 25 26 L 24 26 L 24 27 L 24 28 L 24 29 L 24 30 L 24 31 L 24 32 L 24 33 L 25 33 L 25 34 L 26 34 L 26 35 L 26 36 L 27 36 L 27 37 L 28 37 L 29 37 L 29 38 L 30 38 L 30 39 L 30 40 L 29 40 L 29 41 L 28 41 L 27 41 L 27 42 L 26 42 L 26 43 L 27 43 L 28 43 L 29 43 L 30 43 L 30 44 L 30 45 L 30 46 L 30 47 L 31 47 L 31 48 L 32 48 L 32 49 L 33 49 L 33 50 L 34 50 L 34 49 L 34 48 L 34 47 L 34 46 L 34 45 L 34 44 L 35 44 L 35 43 L 36 43 L 37 43 L 37 42 L 38 42 L 38 41 L 37 41 L 36 41 L 35 41 L 34 41 L 34 40 L 34 39 L 34 38 L 35 38 L 35 37 L 36 37 L 36 36 L 37 36 L 37 35 L 38 35 L 38 34 L 39 34 L 39 33 L 39 32 L 40 32 L 40 31 L 40 30 L 40 29 L 39 29 L 39 28 L 39 27 L 39 26 L 38 26 L 38 25 L 38 24 L 37 24 L 37 23 L 37 22 L 36 22 L 36 21 L 37 21 L 38 21 L 38 20 L 39 20 L 39 19 L 39 18 L 40 18 L 40 17 L 40 16 L 39 16 L 39 17 L 38 17 L 38 18 L 37 18 L 37 19 L 36 19 L 36 20 L 35 20 L 35 21 L 34 21 L 33 21 L 32 21 L 31 21 L 31 20 L 30 20 L 29 20 L 28 20 L 27 20 L 27 19 L 26 19 L 26 18 L 25 18 L 25 17 L 24 17 L 24 16 z M 39 16 L 39 15 L 38 15 L 38 16 L 39 16 z M 28 24 L 29 24 L 30 24 L 31 24 L 32 24 L 33 24 L 33 25 L 34 25 L 34 26 L 35 26 L 35 27 L 36 27 L 36 28 L 36 29 L 36 30 L 36 31 L 36 32 L 36 33 L 36 34 L 36 35 L 35 35 L 34 35 L 33 35 L 32 35 L 31 35 L 31 34 L 30 34 L 30 33 L 29 33 L 29 32 L 29 31 L 28 31 L 28 30 L 28 29 L 28 28 L 28 27 L 28 26 L 28 25 L 28 24 z " />
</svg>
