<?xml version="1.0" encoding="UTF-8" standalone="no"?>
<svg
   version="1.1"
   width="48"
   height="48"
   shape-rendering="crispEdges"
   id="svg200"
   sodipodi:docname="oleum.svg"
   inkscape:version="1.1.2 (b8e25be833, 2022-02-05)"
   xmlns:inkscape="http://www.inkscape.org/namespaces/inkscape"
   xmlns:sodipodi="http://sodipodi.sourceforge.net/DTD/sodipodi-0.dtd"
   xmlns="http://www.w3.org/2000/svg"
   xmlns:svg="http://www.w3.org/2000/svg">
  <defs
     id="defs204" />
  <sodipodi:namedview
     id="namedview202"
     pagecolor="#505050"
     bordercolor="#eeeeee"
     borderopacity="1"
     inkscape:pageshadow="0"
     inkscape:pageopacity="0"
     inkscape:pagecheckerboard="0"
     showgrid="false"
     inkscape:zoom="17.3125"
     inkscape:cx="24"
     inkscape:cy="23.971119"
     inkscape:window-width="1920"
     inkscape:window-height="1017"
     inkscape:window-x="-8"
     inkscape:window-y="-8"
     inkscape:window-maximized="1"
     inkscape:current-layer="svg200" />
  <path
     id="rect2"
     d="M 21 12 L 21 13 L 20 13 L 20 14 L 20 15 L 20 16 L 20 17 L 20 18 L 21 18 L 21 19 L 22 19 L 23 19 L 24 19 L 25 19 L 26 19 L 26 18 L 27 18 L 27 17 L 27 16 L 27 15 L 27 14 L 27 13 L 26 13 L 26 12 L 25 12 L 24 12 L 23 12 L 22 12 L 21 12 z M 24 13 L 25 13 L 25 14 L 25 15 L 25 16 L 25 17 L 24 17 L 24 18 L 23 18 L 22 18 L 22 17 L 22 16 L 22 15 L 22 14 L 23 14 L 24 14 L 24 13 z M 12 25 L 12 26 L 11 26 L 11 27 L 11 28 L 11 29 L 11 30 L 11 31 L 12 31 L 12 32 L 13 32 L 14 32 L 15 32 L 16 32 L 17 32 L 17 31 L 18 31 L 18 30 L 18 29 L 18 28 L 18 27 L 18 26 L 17 26 L 17 25 L 16 25 L 15 25 L 14 25 L 13 25 L 12 25 z M 15 26 L 16 26 L 16 27 L 16 28 L 16 29 L 16 30 L 15 30 L 15 31 L 14 31 L 13 31 L 13 30 L 13 29 L 13 28 L 13 27 L 14 27 L 15 27 L 15 26 z M 29 27 L 29 28 L 28 28 L 28 29 L 28 30 L 28 31 L 28 32 L 28 33 L 29 33 L 29 34 L 30 34 L 31 34 L 32 34 L 33 34 L 34 34 L 34 33 L 35 33 L 35 32 L 35 31 L 35 30 L 35 29 L 35 28 L 34 28 L 34 27 L 33 27 L 32 27 L 31 27 L 30 27 L 29 27 z M 32 28 L 33 28 L 33 29 L 33 30 L 33 31 L 33 32 L 32 32 L 32 33 L 31 33 L 30 33 L 30 32 L 30 31 L 30 30 L 30 29 L 31 29 L 32 29 L 32 28 z " />
</svg>
