<?xml version="1.0" encoding="UTF-8" standalone="no"?>
<svg
   version="1.1"
   width="48"
   height="48"
   shape-rendering="crispEdges"
   id="svg1162"
   sodipodi:docname="sal_ammoniac-salammoniac.svg"
   inkscape:version="1.1.2 (b8e25be833, 2022-02-05)"
   xmlns:inkscape="http://www.inkscape.org/namespaces/inkscape"
   xmlns:sodipodi="http://sodipodi.sourceforge.net/DTD/sodipodi-0.dtd"
   xmlns="http://www.w3.org/2000/svg"
   xmlns:svg="http://www.w3.org/2000/svg">
  <defs
     id="defs1166" />
  <sodipodi:namedview
     id="namedview1164"
     pagecolor="#505050"
     bordercolor="#eeeeee"
     borderopacity="1"
     inkscape:pageshadow="0"
     inkscape:pageopacity="0"
     inkscape:pagecheckerboard="0"
     showgrid="false"
     inkscape:zoom="17.3125"
     inkscape:cx="24"
     inkscape:cy="28.592058"
     inkscape:window-width="1920"
     inkscape:window-height="1017"
     inkscape:window-x="-8"
     inkscape:window-y="-8"
     inkscape:window-maximized="1"
     inkscape:current-layer="svg1162" />
  <path
     id="rect2"
     d="M 7 5 L 7 6 L 8 6 L 8 7 L 9 7 L 9 8 L 10 8 L 11 8 L 12 8 L 12 9 L 13 9 L 13 10 L 13 11 L 14 11 L 14 12 L 15 12 L 15 13 L 16 13 L 16 14 L 16 15 L 17 15 L 17 16 L 18 16 L 18 17 L 19 17 L 19 18 L 20 18 L 20 19 L 20 20 L 21 20 L 21 21 L 21 22 L 20 22 L 19 22 L 19 21 L 18 21 L 17 21 L 16 21 L 15 21 L 14 21 L 13 21 L 12 21 L 12 20 L 11 20 L 11 19 L 10 19 L 10 20 L 10 21 L 10 22 L 10 23 L 10 24 L 10 25 L 10 26 L 10 27 L 11 27 L 11 26 L 12 26 L 12 25 L 12 24 L 13 24 L 14 24 L 15 24 L 16 24 L 17 24 L 18 24 L 19 24 L 19 25 L 19 26 L 18 26 L 18 27 L 17 27 L 17 28 L 17 29 L 16 29 L 16 30 L 16 31 L 15 31 L 15 32 L 14 32 L 14 33 L 13 33 L 13 34 L 13 35 L 12 35 L 12 36 L 11 36 L 11 37 L 11 38 L 10 38 L 10 39 L 9 39 L 8 39 L 7 39 L 7 40 L 6 40 L 5 40 L 5 41 L 6 41 L 7 41 L 8 41 L 8 42 L 9 42 L 10 42 L 11 42 L 12 42 L 13 42 L 14 42 L 15 42 L 16 42 L 17 42 L 17 41 L 18 41 L 18 40 L 18 39 L 17 39 L 16 39 L 15 39 L 15 38 L 16 38 L 16 37 L 16 36 L 17 36 L 17 35 L 17 34 L 18 34 L 18 33 L 18 32 L 19 32 L 19 31 L 20 31 L 20 30 L 20 29 L 21 29 L 21 28 L 22 28 L 23 28 L 23 29 L 22 29 L 22 30 L 22 31 L 22 32 L 22 33 L 22 34 L 23 34 L 23 35 L 23 36 L 22 36 L 22 37 L 22 38 L 22 39 L 21 39 L 21 40 L 20 40 L 20 41 L 21 41 L 22 41 L 22 42 L 23 42 L 24 42 L 25 42 L 26 42 L 27 42 L 28 42 L 29 42 L 29 41 L 29 40 L 28 40 L 28 39 L 27 39 L 26 39 L 25 39 L 25 38 L 26 38 L 26 37 L 26 36 L 26 35 L 26 34 L 26 33 L 26 32 L 26 31 L 26 30 L 26 29 L 26 28 L 27 28 L 27 29 L 27 30 L 28 30 L 28 31 L 29 31 L 29 32 L 30 32 L 30 33 L 30 34 L 31 34 L 31 35 L 31 36 L 32 36 L 32 37 L 32 38 L 33 38 L 33 39 L 32 39 L 32 40 L 31 40 L 31 41 L 31 42 L 32 42 L 33 42 L 34 42 L 35 42 L 36 42 L 37 42 L 38 42 L 39 42 L 40 42 L 41 42 L 42 42 L 42 41 L 41 41 L 41 40 L 40 40 L 39 40 L 39 39 L 38 39 L 37 39 L 37 38 L 37 37 L 36 37 L 36 36 L 36 35 L 35 35 L 35 34 L 35 33 L 34 33 L 33 33 L 33 32 L 33 31 L 33 30 L 32 30 L 32 29 L 31 29 L 31 28 L 30 28 L 30 27 L 29 27 L 29 26 L 29 25 L 28 25 L 28 24 L 29 24 L 30 24 L 31 24 L 32 24 L 33 24 L 34 24 L 35 24 L 35 25 L 35 26 L 36 26 L 36 27 L 37 27 L 37 28 L 38 28 L 38 27 L 38 26 L 38 25 L 38 24 L 38 23 L 38 22 L 38 21 L 38 20 L 38 19 L 37 19 L 37 20 L 36 20 L 35 20 L 35 21 L 34 21 L 33 21 L 32 21 L 31 21 L 30 21 L 30 22 L 29 22 L 28 22 L 27 22 L 26 22 L 26 21 L 27 21 L 27 20 L 28 20 L 28 19 L 28 18 L 28 17 L 29 17 L 30 17 L 30 16 L 30 15 L 31 15 L 31 14 L 32 14 L 32 13 L 32 12 L 33 12 L 33 11 L 34 11 L 35 11 L 35 10 L 35 9 L 36 9 L 36 8 L 37 8 L 38 8 L 38 7 L 39 7 L 39 6 L 40 6 L 40 5 L 39 5 L 38 5 L 37 5 L 36 5 L 35 5 L 34 5 L 33 5 L 32 5 L 31 5 L 31 6 L 30 6 L 30 7 L 30 8 L 31 8 L 31 9 L 31 10 L 30 10 L 30 11 L 29 11 L 29 12 L 28 12 L 28 13 L 28 14 L 27 14 L 27 15 L 26 15 L 26 14 L 26 13 L 26 12 L 26 11 L 26 10 L 26 9 L 27 9 L 27 8 L 28 8 L 28 7 L 28 6 L 28 5 L 27 5 L 26 5 L 25 5 L 24 5 L 23 5 L 22 5 L 21 5 L 20 5 L 20 6 L 20 7 L 20 8 L 21 8 L 22 8 L 22 9 L 23 9 L 23 10 L 23 11 L 23 12 L 23 13 L 23 14 L 23 15 L 23 16 L 22 16 L 21 16 L 21 15 L 20 15 L 20 14 L 20 13 L 19 13 L 19 12 L 18 12 L 18 11 L 18 10 L 17 10 L 17 9 L 17 8 L 18 8 L 18 7 L 18 6 L 18 5 L 17 5 L 16 5 L 15 5 L 14 5 L 13 5 L 12 5 L 11 5 L 10 5 L 9 5 L 8 5 L 7 5 z " />
</svg>
