<?xml version="1.0" encoding="UTF-8" standalone="no"?>
<svg
   version="1.1"
   width="64"
   height="64"
   shape-rendering="crispEdges"
   id="svg718"
   sodipodi:docname="sal_alkali-alkali_salt.svg"
   inkscape:version="1.1.2 (b8e25be833, 2022-02-05)"
   xmlns:inkscape="http://www.inkscape.org/namespaces/inkscape"
   xmlns:sodipodi="http://sodipodi.sourceforge.net/DTD/sodipodi-0.dtd"
   xmlns="http://www.w3.org/2000/svg"
   xmlns:svg="http://www.w3.org/2000/svg">
  <defs
     id="defs722" />
  <sodipodi:namedview
     id="namedview720"
     pagecolor="#505050"
     bordercolor="#eeeeee"
     borderopacity="1"
     inkscape:pageshadow="0"
     inkscape:pageopacity="0"
     inkscape:pagecheckerboard="0"
     showgrid="false"
     inkscape:zoom="12.984375"
     inkscape:cx="32"
     inkscape:cy="32.038508"
     inkscape:window-width="1920"
     inkscape:window-height="1017"
     inkscape:window-x="-8"
     inkscape:window-y="-8"
     inkscape:window-maximized="1"
     inkscape:current-layer="svg718" />
  <path
     id="rect2"
     d="M 31 16 L 31 17 L 30 17 L 29 17 L 28 17 L 27 17 L 27 18 L 26 18 L 26 19 L 25 19 L 25 20 L 24 20 L 24 21 L 23 21 L 23 22 L 22 22 L 22 23 L 22 24 L 21 24 L 21 25 L 21 26 L 21 27 L 21 28 L 21 29 L 21 30 L 21 31 L 21 32 L 21 33 L 21 34 L 22 34 L 22 35 L 22 36 L 23 36 L 23 37 L 24 37 L 25 37 L 25 38 L 26 38 L 27 38 L 27 39 L 28 39 L 28 40 L 27 40 L 27 41 L 26 41 L 25 41 L 25 42 L 24 42 L 24 43 L 23 43 L 23 44 L 23 45 L 22 45 L 22 46 L 22 47 L 22 48 L 22 49 L 22 50 L 23 50 L 23 51 L 23 52 L 24 52 L 24 53 L 25 53 L 25 54 L 26 54 L 27 54 L 27 53 L 28 53 L 28 52 L 28 51 L 27 51 L 27 50 L 27 49 L 26 49 L 26 48 L 26 47 L 26 46 L 27 46 L 27 45 L 27 44 L 28 44 L 28 43 L 29 43 L 29 42 L 30 42 L 30 41 L 31 41 L 32 41 L 33 41 L 34 41 L 35 41 L 36 41 L 37 41 L 37 42 L 38 42 L 39 42 L 40 42 L 40 43 L 40 44 L 41 44 L 41 45 L 41 46 L 42 46 L 42 47 L 42 48 L 42 49 L 41 49 L 41 50 L 41 51 L 40 51 L 40 52 L 39 52 L 39 53 L 40 53 L 40 54 L 41 54 L 42 54 L 42 53 L 43 53 L 43 52 L 44 52 L 44 51 L 44 50 L 45 50 L 45 49 L 45 48 L 45 47 L 45 46 L 45 45 L 45 44 L 44 44 L 44 43 L 44 42 L 43 42 L 43 41 L 42 41 L 41 41 L 41 40 L 40 40 L 40 39 L 41 39 L 41 38 L 42 38 L 42 37 L 43 37 L 44 37 L 44 36 L 45 36 L 45 35 L 45 34 L 46 34 L 46 33 L 46 32 L 46 31 L 46 30 L 46 29 L 46 28 L 46 27 L 46 26 L 46 25 L 45 25 L 45 24 L 45 23 L 45 22 L 44 22 L 44 21 L 43 21 L 42 21 L 42 20 L 41 20 L 41 19 L 41 18 L 40 18 L 40 17 L 39 17 L 38 17 L 37 17 L 36 17 L 36 16 L 35 16 L 34 16 L 33 16 L 32 16 L 31 16 z M 30 18 L 31 18 L 32 18 L 33 18 L 34 18 L 34 19 L 34 20 L 35 20 L 36 20 L 36 21 L 37 21 L 38 21 L 38 22 L 39 22 L 39 23 L 39 24 L 40 24 L 40 25 L 40 26 L 40 27 L 41 27 L 41 28 L 41 29 L 42 29 L 42 30 L 42 31 L 42 32 L 42 33 L 42 34 L 42 35 L 41 35 L 41 36 L 41 37 L 40 37 L 39 37 L 39 38 L 38 38 L 37 38 L 36 38 L 35 38 L 34 38 L 33 38 L 32 38 L 32 37 L 31 37 L 30 37 L 30 36 L 29 36 L 29 35 L 28 35 L 28 34 L 27 34 L 27 33 L 27 32 L 27 31 L 26 31 L 26 30 L 26 29 L 26 28 L 25 28 L 25 27 L 25 26 L 25 25 L 25 24 L 25 23 L 26 23 L 26 22 L 27 22 L 27 21 L 27 20 L 28 20 L 29 20 L 29 19 L 30 19 L 30 18 z " />
</svg>
