<?xml version="1.0" encoding="UTF-8" standalone="no"?>
<svg
   version="1.1"
   width="48"
   height="48"
   shape-rendering="crispEdges"
   id="svg390"
   sodipodi:docname="sal_gemma-rock_salt.svg"
   inkscape:version="1.1.2 (b8e25be833, 2022-02-05)"
   xmlns:inkscape="http://www.inkscape.org/namespaces/inkscape"
   xmlns:sodipodi="http://sodipodi.sourceforge.net/DTD/sodipodi-0.dtd"
   xmlns="http://www.w3.org/2000/svg"
   xmlns:svg="http://www.w3.org/2000/svg">
  <defs
     id="defs394" />
  <sodipodi:namedview
     id="namedview392"
     pagecolor="#505050"
     bordercolor="#eeeeee"
     borderopacity="1"
     inkscape:pageshadow="0"
     inkscape:pageopacity="0"
     inkscape:pagecheckerboard="0"
     showgrid="false"
     inkscape:zoom="17.3125"
     inkscape:cx="24"
     inkscape:cy="23.971119"
     inkscape:window-width="1920"
     inkscape:window-height="1017"
     inkscape:window-x="-8"
     inkscape:window-y="-8"
     inkscape:window-maximized="1"
     inkscape:current-layer="svg390" />
  <path
     id="rect2"
     d="M 16 12 L 16 13 L 15 13 L 14 13 L 14 14 L 14 15 L 13 15 L 13 16 L 12 16 L 11 16 L 11 17 L 11 18 L 10 18 L 10 19 L 9 19 L 9 20 L 8 20 L 8 21 L 7 21 L 7 22 L 7 23 L 6 23 L 6 24 L 6 25 L 7 25 L 7 26 L 8 26 L 8 27 L 8 28 L 9 28 L 9 29 L 10 29 L 10 30 L 11 30 L 11 31 L 11 32 L 12 32 L 12 33 L 13 33 L 13 34 L 14 34 L 14 35 L 15 35 L 15 36 L 16 36 L 16 35 L 17 35 L 18 35 L 18 34 L 18 33 L 19 33 L 19 32 L 19 31 L 20 31 L 21 31 L 21 30 L 21 29 L 21 28 L 22 28 L 23 28 L 23 27 L 23 26 L 24 26 L 24 25 L 25 25 L 26 25 L 27 25 L 28 25 L 29 25 L 30 25 L 31 25 L 32 25 L 33 25 L 34 25 L 35 25 L 36 25 L 37 25 L 38 25 L 38 26 L 39 26 L 39 25 L 40 25 L 41 25 L 41 24 L 41 23 L 41 22 L 40 22 L 40 21 L 39 21 L 38 21 L 37 21 L 37 22 L 36 22 L 35 22 L 34 22 L 33 22 L 32 22 L 32 23 L 31 23 L 30 23 L 29 23 L 28 23 L 27 23 L 26 23 L 25 23 L 25 22 L 24 22 L 23 22 L 22 22 L 22 21 L 22 20 L 21 20 L 21 19 L 20 19 L 20 18 L 20 17 L 19 17 L 19 16 L 18 16 L 18 15 L 18 14 L 17 14 L 17 13 L 17 12 L 16 12 z M 15 17 L 16 17 L 16 18 L 17 18 L 17 19 L 18 19 L 18 20 L 19 20 L 19 21 L 19 22 L 20 22 L 20 23 L 21 23 L 21 24 L 21 25 L 20 25 L 20 26 L 20 27 L 19 27 L 19 28 L 19 29 L 18 29 L 18 30 L 17 30 L 17 31 L 16 31 L 15 31 L 15 30 L 14 30 L 14 29 L 13 29 L 13 28 L 12 28 L 12 27 L 11 27 L 11 26 L 11 25 L 10 25 L 10 24 L 10 23 L 10 22 L 11 22 L 11 21 L 12 21 L 12 20 L 13 20 L 13 19 L 14 19 L 14 18 L 15 18 L 15 17 z " />
</svg>
