<?xml version="1.0" encoding="UTF-8" standalone="no"?>
<svg
   version="1.1"
   width="64"
   height="64"
   shape-rendering="crispEdges"
   id="svg926"
   sodipodi:docname="salt.svg"
   inkscape:version="1.1.2 (b8e25be833, 2022-02-05)"
   xmlns:inkscape="http://www.inkscape.org/namespaces/inkscape"
   xmlns:sodipodi="http://sodipodi.sourceforge.net/DTD/sodipodi-0.dtd"
   xmlns="http://www.w3.org/2000/svg"
   xmlns:svg="http://www.w3.org/2000/svg">
  <defs
     id="defs930" />
  <sodipodi:namedview
     id="namedview928"
     pagecolor="#505050"
     bordercolor="#eeeeee"
     borderopacity="1"
     inkscape:pageshadow="0"
     inkscape:pageopacity="0"
     inkscape:pagecheckerboard="0"
     showgrid="false"
     inkscape:zoom="12.984375"
     inkscape:cx="32"
     inkscape:cy="32.038508"
     inkscape:window-width="1920"
     inkscape:window-height="1017"
     inkscape:window-x="-8"
     inkscape:window-y="-8"
     inkscape:window-maximized="1"
     inkscape:current-layer="svg926" />
  <path
     id="rect2"
     d="M 26 16 L 26 17 L 25 17 L 24 17 L 23 17 L 23 18 L 23 19 L 22 19 L 22 20 L 21 20 L 21 21 L 20 21 L 20 22 L 19 22 L 19 23 L 18 23 L 18 24 L 18 25 L 17 25 L 17 26 L 17 27 L 16 27 L 16 28 L 16 29 L 16 30 L 16 31 L 16 32 L 16 33 L 16 34 L 16 35 L 16 36 L 16 37 L 16 38 L 16 39 L 17 39 L 17 40 L 18 40 L 18 41 L 18 42 L 19 42 L 20 42 L 20 43 L 20 44 L 21 44 L 21 45 L 22 45 L 22 46 L 23 46 L 24 46 L 24 47 L 25 47 L 26 47 L 26 48 L 27 48 L 28 48 L 29 48 L 30 48 L 31 48 L 32 48 L 33 48 L 34 48 L 35 48 L 36 48 L 37 48 L 38 48 L 38 47 L 39 47 L 40 47 L 40 46 L 41 46 L 42 46 L 42 45 L 43 45 L 43 44 L 43 43 L 44 43 L 45 43 L 45 42 L 45 41 L 45 40 L 46 40 L 46 39 L 47 39 L 47 38 L 47 37 L 48 37 L 48 36 L 48 35 L 48 34 L 48 33 L 48 32 L 48 31 L 48 30 L 48 29 L 47 29 L 47 28 L 47 27 L 47 26 L 47 25 L 46 25 L 46 24 L 46 23 L 45 23 L 45 22 L 44 22 L 44 21 L 44 20 L 44 19 L 43 19 L 42 19 L 42 18 L 41 18 L 40 18 L 39 18 L 39 17 L 39 16 L 38 16 L 37 16 L 36 16 L 35 16 L 34 16 L 33 16 L 32 16 L 31 16 L 30 16 L 29 16 L 28 16 L 27 16 L 26 16 z M 26 19 L 27 19 L 28 19 L 29 19 L 30 19 L 31 19 L 32 19 L 33 19 L 34 19 L 34 20 L 34 21 L 35 21 L 36 21 L 36 22 L 37 22 L 37 23 L 38 23 L 38 24 L 39 24 L 39 25 L 40 25 L 40 26 L 40 27 L 41 27 L 41 28 L 41 29 L 41 30 L 40 30 L 39 30 L 38 30 L 37 30 L 36 30 L 35 30 L 34 30 L 33 30 L 32 30 L 31 30 L 30 30 L 29 30 L 28 30 L 27 30 L 26 30 L 25 30 L 24 30 L 23 30 L 22 30 L 22 29 L 21 29 L 21 28 L 21 27 L 21 26 L 21 25 L 22 25 L 22 24 L 22 23 L 23 23 L 23 22 L 23 21 L 24 21 L 24 20 L 25 20 L 26 20 L 26 19 z M 22 33 L 23 33 L 24 33 L 25 33 L 26 33 L 27 33 L 28 33 L 29 33 L 30 33 L 31 33 L 32 33 L 33 33 L 34 33 L 35 33 L 36 33 L 37 33 L 38 33 L 39 33 L 40 33 L 41 33 L 42 33 L 42 34 L 43 34 L 43 35 L 43 36 L 43 37 L 43 38 L 43 39 L 43 40 L 43 41 L 42 41 L 42 42 L 41 42 L 41 43 L 40 43 L 39 43 L 39 44 L 38 44 L 37 44 L 37 45 L 36 45 L 35 45 L 34 45 L 33 45 L 32 45 L 31 45 L 30 45 L 30 44 L 29 44 L 28 44 L 28 43 L 27 43 L 27 42 L 26 42 L 26 41 L 25 41 L 25 40 L 25 39 L 24 39 L 24 38 L 24 37 L 23 37 L 23 36 L 23 35 L 22 35 L 22 34 L 22 33 z " />
</svg>
