<?xml version="1.0" encoding="UTF-8" standalone="no"?>
<svg
   version="1.1"
   width="64"
   height="64"
   shape-rendering="crispEdges"
   id="svg538"
   sodipodi:docname="silver-moon2.svg"
   inkscape:version="1.1.2 (b8e25be833, 2022-02-05)"
   xmlns:inkscape="http://www.inkscape.org/namespaces/inkscape"
   xmlns:sodipodi="http://sodipodi.sourceforge.net/DTD/sodipodi-0.dtd"
   xmlns="http://www.w3.org/2000/svg"
   xmlns:svg="http://www.w3.org/2000/svg">
  <defs
     id="defs542" />
  <sodipodi:namedview
     id="namedview540"
     pagecolor="#505050"
     bordercolor="#eeeeee"
     borderopacity="1"
     inkscape:pageshadow="0"
     inkscape:pageopacity="0"
     inkscape:pagecheckerboard="0"
     showgrid="false"
     inkscape:zoom="12.984375"
     inkscape:cx="32"
     inkscape:cy="32.038508"
     inkscape:window-width="1920"
     inkscape:window-height="1017"
     inkscape:window-x="-8"
     inkscape:window-y="-8"
     inkscape:window-maximized="1"
     inkscape:current-layer="svg538" />
  <path
     id="rect2"
     d="M 19 15 L 19 16 L 20 16 L 20 17 L 21 17 L 22 17 L 23 17 L 23 18 L 24 18 L 25 18 L 25 19 L 26 19 L 27 19 L 27 20 L 28 20 L 29 20 L 29 21 L 30 21 L 30 22 L 31 22 L 31 23 L 31 24 L 32 24 L 32 25 L 32 26 L 33 26 L 33 27 L 33 28 L 34 28 L 34 29 L 34 30 L 35 30 L 35 31 L 35 32 L 35 33 L 35 34 L 34 34 L 34 35 L 34 36 L 33 36 L 33 37 L 33 38 L 32 38 L 32 39 L 32 40 L 31 40 L 31 41 L 31 42 L 30 42 L 30 43 L 29 43 L 29 44 L 28 44 L 27 44 L 27 45 L 26 45 L 25 45 L 25 46 L 24 46 L 23 46 L 23 47 L 22 47 L 21 47 L 20 47 L 20 48 L 19 48 L 19 49 L 20 49 L 21 49 L 22 49 L 23 49 L 24 49 L 25 49 L 26 49 L 27 49 L 28 49 L 29 49 L 30 49 L 31 49 L 32 49 L 33 49 L 34 49 L 35 49 L 36 49 L 36 48 L 37 48 L 38 48 L 38 47 L 39 47 L 40 47 L 40 46 L 41 46 L 41 45 L 42 45 L 42 44 L 43 44 L 43 43 L 44 43 L 44 42 L 45 42 L 45 41 L 45 40 L 46 40 L 46 39 L 46 38 L 47 38 L 47 37 L 47 36 L 47 35 L 48 35 L 48 34 L 48 33 L 48 32 L 48 31 L 48 30 L 48 29 L 47 29 L 47 28 L 47 27 L 47 26 L 46 26 L 46 25 L 46 24 L 45 24 L 45 23 L 45 22 L 44 22 L 44 21 L 43 21 L 43 20 L 42 20 L 42 19 L 41 19 L 41 18 L 40 18 L 40 17 L 39 17 L 38 17 L 38 16 L 37 16 L 36 16 L 36 15 L 35 15 L 34 15 L 33 15 L 32 15 L 31 15 L 30 15 L 29 15 L 28 15 L 27 15 L 26 15 L 25 15 L 24 15 L 23 15 L 22 15 L 21 15 L 20 15 L 19 15 z M 29 17 L 30 17 L 31 17 L 32 17 L 33 17 L 34 17 L 34 18 L 35 18 L 36 18 L 36 19 L 37 19 L 38 19 L 38 20 L 39 20 L 40 20 L 40 21 L 41 21 L 41 22 L 42 22 L 42 23 L 42 24 L 43 24 L 43 25 L 43 26 L 44 26 L 44 27 L 44 28 L 45 28 L 45 29 L 45 30 L 45 31 L 45 32 L 45 33 L 45 34 L 45 35 L 45 36 L 44 36 L 44 37 L 44 38 L 43 38 L 43 39 L 43 40 L 42 40 L 42 41 L 42 42 L 41 42 L 41 43 L 40 43 L 40 44 L 39 44 L 38 44 L 38 45 L 37 45 L 36 45 L 36 46 L 35 46 L 34 46 L 34 47 L 33 47 L 32 47 L 31 47 L 30 47 L 29 47 L 29 46 L 30 46 L 30 45 L 31 45 L 31 44 L 32 44 L 32 43 L 33 43 L 33 42 L 34 42 L 34 41 L 34 40 L 35 40 L 35 39 L 35 38 L 36 38 L 36 37 L 36 36 L 37 36 L 37 35 L 37 34 L 37 33 L 37 32 L 37 31 L 37 30 L 37 29 L 37 28 L 36 28 L 36 27 L 36 26 L 35 26 L 35 25 L 35 24 L 34 24 L 34 23 L 34 22 L 33 22 L 33 21 L 32 21 L 32 20 L 31 20 L 31 19 L 30 19 L 30 18 L 29 18 L 29 17 z " />
</svg>
