<?xml version="1.0" encoding="UTF-8" standalone="no"?>
<svg
   version="1.1"
   width="64"
   height="64"
   shape-rendering="crispEdges"
   id="svg488"
   sodipodi:docname="sulfur.svg"
   inkscape:version="1.1.2 (b8e25be833, 2022-02-05)"
   xmlns:inkscape="http://www.inkscape.org/namespaces/inkscape"
   xmlns:sodipodi="http://sodipodi.sourceforge.net/DTD/sodipodi-0.dtd"
   xmlns="http://www.w3.org/2000/svg"
   xmlns:svg="http://www.w3.org/2000/svg">
  <defs
     id="defs492" />
  <sodipodi:namedview
     id="namedview490"
     pagecolor="#505050"
     bordercolor="#eeeeee"
     borderopacity="1"
     inkscape:pageshadow="0"
     inkscape:pageopacity="0"
     inkscape:pagecheckerboard="0"
     showgrid="false"
     inkscape:zoom="12.984375"
     inkscape:cx="32"
     inkscape:cy="32.038508"
     inkscape:window-width="1920"
     inkscape:window-height="1017"
     inkscape:window-x="-8"
     inkscape:window-y="-8"
     inkscape:window-maximized="1"
     inkscape:current-layer="svg488" />
  <path
     id="rect2"
     d="M 32 14 L 32 15 L 31 15 L 31 16 L 30 16 L 30 17 L 30 18 L 29 18 L 29 19 L 29 20 L 29 21 L 28 21 L 28 22 L 27 22 L 27 23 L 26 23 L 26 24 L 26 25 L 25 25 L 25 26 L 25 27 L 24 27 L 24 28 L 23 28 L 23 29 L 23 30 L 23 31 L 22 31 L 22 32 L 21 32 L 21 33 L 21 34 L 20 34 L 20 35 L 20 36 L 19 36 L 19 37 L 20 37 L 21 37 L 22 37 L 23 37 L 24 37 L 25 37 L 26 37 L 27 37 L 28 37 L 29 37 L 30 37 L 30 38 L 30 39 L 30 40 L 30 41 L 29 41 L 28 41 L 27 41 L 26 41 L 25 41 L 25 42 L 24 42 L 23 42 L 23 43 L 24 43 L 25 43 L 26 43 L 27 43 L 28 43 L 29 43 L 30 43 L 30 44 L 30 45 L 30 46 L 30 47 L 29 47 L 29 48 L 30 48 L 30 49 L 30 50 L 30 51 L 30 52 L 31 52 L 31 51 L 32 51 L 32 50 L 33 50 L 33 49 L 34 49 L 34 48 L 35 48 L 35 47 L 34 47 L 34 46 L 34 45 L 34 44 L 34 43 L 35 43 L 36 43 L 37 43 L 38 43 L 39 43 L 39 42 L 40 42 L 41 42 L 41 41 L 40 41 L 39 41 L 38 41 L 37 41 L 36 41 L 35 41 L 34 41 L 34 40 L 34 39 L 34 38 L 34 37 L 35 37 L 36 37 L 37 37 L 38 37 L 39 37 L 40 37 L 41 37 L 42 37 L 43 37 L 44 37 L 45 37 L 46 37 L 46 36 L 45 36 L 45 35 L 45 34 L 44 34 L 44 33 L 43 33 L 43 32 L 43 31 L 42 31 L 42 30 L 42 29 L 41 29 L 41 28 L 40 28 L 40 27 L 40 26 L 39 26 L 39 25 L 39 24 L 38 24 L 38 23 L 38 22 L 37 22 L 37 21 L 37 20 L 36 20 L 35 20 L 35 19 L 35 18 L 35 17 L 34 17 L 34 16 L 34 15 L 33 15 L 33 14 L 32 14 z M 32 18 L 33 18 L 33 19 L 33 20 L 34 20 L 34 21 L 34 22 L 35 22 L 35 23 L 35 24 L 36 24 L 36 25 L 36 26 L 37 26 L 37 27 L 38 27 L 38 28 L 38 29 L 39 29 L 39 30 L 39 31 L 40 31 L 40 32 L 40 33 L 41 33 L 41 34 L 42 34 L 42 35 L 41 35 L 40 35 L 39 35 L 38 35 L 37 35 L 36 35 L 35 35 L 34 35 L 33 35 L 32 35 L 31 35 L 30 35 L 29 35 L 28 35 L 27 35 L 26 35 L 25 35 L 24 35 L 23 35 L 23 34 L 24 34 L 24 33 L 25 33 L 25 32 L 25 31 L 26 31 L 26 30 L 26 29 L 27 29 L 27 28 L 27 27 L 28 27 L 28 26 L 28 25 L 29 25 L 29 24 L 29 23 L 30 23 L 30 22 L 30 21 L 31 21 L 31 20 L 31 19 L 32 19 L 32 18 z " />
</svg>
