<?xml version="1.0" encoding="UTF-8" standalone="no"?>
<svg
   version="1.1"
   width="64"
   height="64"
   shape-rendering="crispEdges"
   id="svg354"
   sodipodi:docname="supo-soap.svg"
   inkscape:version="1.1.2 (b8e25be833, 2022-02-05)"
   xmlns:inkscape="http://www.inkscape.org/namespaces/inkscape"
   xmlns:sodipodi="http://sodipodi.sourceforge.net/DTD/sodipodi-0.dtd"
   xmlns="http://www.w3.org/2000/svg"
   xmlns:svg="http://www.w3.org/2000/svg">
  <defs
     id="defs358" />
  <sodipodi:namedview
     id="namedview356"
     pagecolor="#505050"
     bordercolor="#eeeeee"
     borderopacity="1"
     inkscape:pageshadow="0"
     inkscape:pageopacity="0"
     inkscape:pagecheckerboard="0"
     showgrid="false"
     inkscape:zoom="12.984375"
     inkscape:cx="32"
     inkscape:cy="32.038508"
     inkscape:window-width="1920"
     inkscape:window-height="1017"
     inkscape:window-x="-8"
     inkscape:window-y="-8"
     inkscape:window-maximized="1"
     inkscape:current-layer="svg354" />
  <path
     id="rect2"
     d="M 30 20 L 30 21 L 29 21 L 29 22 L 29 23 L 28 23 L 28 24 L 27 24 L 26 24 L 26 25 L 25 25 L 25 26 L 24 26 L 24 27 L 24 28 L 23 28 L 23 29 L 22 29 L 21 29 L 21 30 L 20 30 L 20 31 L 20 32 L 20 33 L 21 33 L 21 34 L 22 34 L 23 34 L 23 35 L 24 35 L 24 36 L 25 36 L 25 37 L 25 38 L 26 38 L 26 39 L 27 39 L 28 39 L 28 40 L 29 40 L 29 41 L 30 41 L 30 42 L 30 43 L 31 43 L 31 44 L 32 44 L 33 44 L 33 43 L 34 43 L 34 42 L 34 41 L 35 41 L 35 40 L 36 40 L 36 39 L 37 39 L 38 39 L 38 38 L 39 38 L 39 37 L 39 36 L 40 36 L 40 35 L 41 35 L 41 34 L 42 34 L 43 34 L 43 33 L 44 33 L 44 32 L 44 31 L 43 31 L 43 30 L 42 30 L 41 30 L 41 29 L 40 29 L 40 28 L 39 28 L 39 27 L 39 26 L 38 26 L 38 25 L 37 25 L 36 25 L 36 24 L 35 24 L 35 23 L 34 23 L 34 22 L 34 21 L 33 21 L 33 20 L 32 20 L 31 20 L 30 20 z M 31 24 L 32 24 L 33 24 L 33 25 L 34 25 L 34 26 L 35 26 L 35 27 L 35 28 L 36 28 L 36 29 L 37 29 L 38 29 L 38 30 L 39 30 L 39 31 L 39 32 L 39 33 L 38 33 L 38 34 L 37 34 L 36 34 L 36 35 L 35 35 L 35 36 L 34 36 L 34 37 L 34 38 L 33 38 L 33 39 L 32 39 L 31 39 L 30 39 L 30 38 L 29 38 L 29 37 L 29 36 L 28 36 L 28 35 L 27 35 L 26 35 L 26 34 L 25 34 L 25 33 L 24 33 L 24 32 L 24 31 L 25 31 L 25 30 L 26 30 L 26 29 L 27 29 L 28 29 L 28 28 L 29 28 L 29 27 L 29 26 L 30 26 L 30 25 L 31 25 L 31 24 z " />
</svg>
