<?xml version="1.0" encoding="UTF-8" standalone="no"?>
<svg
   version="1.1"
   width="48"
   height="48"
   shape-rendering="crispEdges"
   id="svg504"
   sodipodi:docname="tin-jupiter.svg"
   inkscape:version="1.1.2 (b8e25be833, 2022-02-05)"
   xmlns:inkscape="http://www.inkscape.org/namespaces/inkscape"
   xmlns:sodipodi="http://sodipodi.sourceforge.net/DTD/sodipodi-0.dtd"
   xmlns="http://www.w3.org/2000/svg"
   xmlns:svg="http://www.w3.org/2000/svg">
  <defs
     id="defs508" />
  <sodipodi:namedview
     id="namedview506"
     pagecolor="#505050"
     bordercolor="#eeeeee"
     borderopacity="1"
     inkscape:pageshadow="0"
     inkscape:pageopacity="0"
     inkscape:pagecheckerboard="0"
     showgrid="false"
     inkscape:zoom="17.3125"
     inkscape:cx="24"
     inkscape:cy="23.971119"
     inkscape:window-width="1920"
     inkscape:window-height="1017"
     inkscape:window-x="-8"
     inkscape:window-y="-8"
     inkscape:window-maximized="1"
     inkscape:current-layer="svg504" />
  <path
     id="rect2"
     d="M 17 7 L 17 8 L 16 8 L 15 8 L 15 9 L 14 9 L 13 9 L 13 10 L 12 10 L 12 11 L 11 11 L 11 12 L 11 13 L 12 13 L 12 12 L 13 12 L 14 12 L 14 11 L 15 11 L 16 11 L 17 11 L 18 11 L 19 11 L 20 11 L 20 12 L 21 12 L 22 12 L 22 13 L 22 14 L 22 15 L 22 16 L 22 17 L 22 18 L 21 18 L 21 19 L 20 19 L 20 20 L 20 21 L 19 21 L 19 22 L 19 23 L 18 23 L 18 24 L 17 24 L 17 25 L 16 25 L 15 25 L 15 26 L 15 27 L 14 27 L 14 28 L 13 28 L 13 29 L 12 29 L 12 30 L 11 30 L 11 31 L 11 32 L 10 32 L 10 33 L 9 33 L 9 34 L 10 34 L 11 34 L 12 34 L 13 34 L 14 34 L 15 34 L 16 34 L 17 34 L 18 34 L 19 34 L 20 34 L 21 34 L 22 34 L 22 35 L 22 36 L 22 37 L 22 38 L 22 39 L 22 40 L 21 40 L 21 41 L 20 41 L 20 42 L 21 42 L 22 42 L 23 42 L 24 42 L 25 42 L 26 42 L 27 42 L 28 42 L 29 42 L 29 41 L 28 41 L 27 41 L 27 40 L 26 40 L 26 39 L 26 38 L 26 37 L 26 36 L 26 35 L 26 34 L 27 34 L 28 34 L 29 34 L 30 34 L 31 34 L 32 34 L 33 34 L 33 35 L 34 35 L 34 36 L 35 36 L 35 35 L 35 34 L 35 33 L 35 32 L 35 31 L 35 30 L 34 30 L 34 31 L 33 31 L 33 32 L 32 32 L 31 32 L 30 32 L 29 32 L 28 32 L 27 32 L 26 32 L 26 31 L 26 30 L 26 29 L 26 28 L 26 27 L 26 26 L 26 25 L 26 24 L 25 24 L 25 25 L 24 25 L 24 26 L 23 26 L 23 27 L 22 27 L 22 28 L 22 29 L 22 30 L 22 31 L 22 32 L 21 32 L 20 32 L 19 32 L 18 32 L 17 32 L 16 32 L 15 32 L 14 32 L 13 32 L 13 31 L 14 31 L 14 30 L 15 30 L 15 29 L 16 29 L 16 28 L 17 28 L 17 27 L 18 27 L 19 27 L 19 26 L 20 26 L 20 25 L 21 25 L 21 24 L 22 24 L 22 23 L 22 22 L 23 22 L 23 21 L 24 21 L 24 20 L 25 20 L 25 19 L 25 18 L 26 18 L 26 17 L 26 16 L 27 16 L 27 15 L 27 14 L 27 13 L 26 13 L 26 12 L 26 11 L 26 10 L 25 10 L 25 9 L 24 9 L 24 8 L 23 8 L 22 8 L 22 7 L 21 7 L 20 7 L 19 7 L 18 7 L 17 7 z M 11 13 L 10 13 L 10 14 L 11 14 L 11 13 z " />
</svg>
