<?xml version="1.0" encoding="UTF-8" standalone="no"?>
<svg
   version="1.1"
   width="48"
   height="48"
   shape-rendering="crispEdges"
   id="svg560"
   sodipodi:docname="vitriolum-vitriol.svg"
   inkscape:version="1.1.2 (b8e25be833, 2022-02-05)"
   xmlns:inkscape="http://www.inkscape.org/namespaces/inkscape"
   xmlns:sodipodi="http://sodipodi.sourceforge.net/DTD/sodipodi-0.dtd"
   xmlns="http://www.w3.org/2000/svg"
   xmlns:svg="http://www.w3.org/2000/svg">
  <defs
     id="defs564" />
  <sodipodi:namedview
     id="namedview562"
     pagecolor="#505050"
     bordercolor="#eeeeee"
     borderopacity="1"
     inkscape:pageshadow="0"
     inkscape:pageopacity="0"
     inkscape:pagecheckerboard="0"
     showgrid="false"
     inkscape:zoom="17.3125"
     inkscape:cx="24"
     inkscape:cy="23.971119"
     inkscape:window-width="1920"
     inkscape:window-height="1017"
     inkscape:window-x="-8"
     inkscape:window-y="-8"
     inkscape:window-maximized="1"
     inkscape:current-layer="svg560" />
  <path
     id="rect2"
     d="M 14 13 L 14 14 L 13 14 L 12 14 L 11 14 L 11 15 L 10 15 L 10 16 L 9 16 L 9 17 L 8 17 L 8 18 L 7 18 L 7 19 L 7 20 L 6 20 L 6 21 L 6 22 L 6 23 L 6 24 L 6 25 L 6 26 L 6 27 L 6 28 L 7 28 L 7 29 L 7 30 L 8 30 L 8 31 L 9 31 L 9 32 L 10 32 L 11 32 L 11 33 L 11 34 L 12 34 L 13 34 L 14 34 L 14 35 L 15 35 L 16 35 L 16 36 L 17 36 L 17 35 L 18 35 L 18 34 L 19 34 L 20 34 L 21 34 L 22 34 L 22 33 L 22 32 L 21 32 L 20 32 L 19 32 L 18 32 L 18 31 L 18 30 L 18 29 L 18 28 L 18 27 L 18 26 L 18 25 L 19 25 L 20 25 L 21 25 L 22 25 L 23 25 L 23 26 L 24 26 L 24 27 L 24 28 L 24 29 L 23 29 L 23 30 L 23 31 L 22 31 L 22 32 L 23 32 L 24 32 L 24 31 L 25 31 L 25 30 L 26 30 L 26 29 L 26 28 L 27 28 L 27 27 L 27 26 L 27 25 L 28 25 L 29 25 L 30 25 L 31 25 L 32 25 L 33 25 L 34 25 L 35 25 L 36 25 L 37 25 L 37 26 L 38 26 L 38 25 L 39 25 L 39 24 L 40 24 L 40 23 L 41 23 L 41 22 L 40 22 L 39 22 L 38 22 L 37 22 L 36 22 L 35 22 L 34 22 L 33 22 L 32 22 L 31 22 L 30 22 L 29 22 L 28 22 L 27 22 L 27 21 L 26 21 L 26 20 L 26 19 L 26 18 L 25 18 L 25 17 L 24 17 L 24 16 L 23 16 L 23 15 L 22 15 L 22 14 L 21 14 L 20 14 L 19 14 L 19 13 L 18 13 L 17 13 L 16 13 L 15 13 L 14 13 z M 13 15 L 14 15 L 15 15 L 15 16 L 15 17 L 15 18 L 15 19 L 15 20 L 15 21 L 15 22 L 15 23 L 15 24 L 15 25 L 15 26 L 15 27 L 15 28 L 15 29 L 15 30 L 15 31 L 14 31 L 13 31 L 13 30 L 12 30 L 12 29 L 12 28 L 11 28 L 11 27 L 11 26 L 10 26 L 10 25 L 10 24 L 10 23 L 9 23 L 9 22 L 9 21 L 9 20 L 9 19 L 10 19 L 10 18 L 11 18 L 11 17 L 11 16 L 12 16 L 13 16 L 13 15 z M 18 16 L 19 16 L 19 17 L 20 17 L 20 18 L 21 18 L 21 19 L 21 20 L 22 20 L 22 21 L 22 22 L 21 22 L 20 22 L 19 22 L 18 22 L 18 21 L 18 20 L 18 19 L 18 18 L 18 17 L 18 16 z " />
</svg>
