<?xml version="1.0" encoding="UTF-8" standalone="no"?>
<svg
   version="1.1"
   width="64"
   height="64"
   shape-rendering="crispEdges"
   id="svg736"
   sodipodi:docname="water.svg"
   inkscape:version="1.1.2 (b8e25be833, 2022-02-05)"
   xmlns:inkscape="http://www.inkscape.org/namespaces/inkscape"
   xmlns:sodipodi="http://sodipodi.sourceforge.net/DTD/sodipodi-0.dtd"
   xmlns="http://www.w3.org/2000/svg"
   xmlns:svg="http://www.w3.org/2000/svg">
  <defs
     id="defs740" />
  <sodipodi:namedview
     id="namedview738"
     pagecolor="#505050"
     bordercolor="#eeeeee"
     borderopacity="1"
     inkscape:pageshadow="0"
     inkscape:pageopacity="0"
     inkscape:pagecheckerboard="0"
     showgrid="false"
     inkscape:zoom="12.984375"
     inkscape:cx="32"
     inkscape:cy="32.038508"
     inkscape:window-width="1920"
     inkscape:window-height="1017"
     inkscape:window-x="-8"
     inkscape:window-y="-8"
     inkscape:window-maximized="1"
     inkscape:current-layer="svg736" />
  <path
     id="rect2"
     d="M 13 15 L 13 16 L 13 17 L 13 18 L 14 18 L 14 19 L 15 19 L 15 20 L 15 21 L 16 21 L 16 22 L 17 22 L 17 23 L 17 24 L 18 24 L 18 25 L 18 26 L 19 26 L 19 27 L 19 28 L 20 28 L 20 29 L 20 30 L 21 30 L 21 31 L 22 31 L 22 32 L 23 32 L 23 33 L 23 34 L 24 34 L 24 35 L 24 36 L 24 37 L 25 37 L 25 38 L 26 38 L 26 39 L 26 40 L 27 40 L 27 41 L 28 41 L 28 42 L 28 43 L 29 43 L 29 44 L 30 44 L 30 45 L 30 46 L 31 46 L 31 47 L 31 48 L 32 48 L 32 49 L 33 49 L 33 48 L 34 48 L 34 47 L 34 46 L 35 46 L 35 45 L 35 44 L 36 44 L 36 43 L 37 43 L 37 42 L 37 41 L 38 41 L 38 40 L 39 40 L 39 39 L 39 38 L 40 38 L 40 37 L 40 36 L 41 36 L 41 35 L 42 35 L 42 34 L 42 33 L 42 32 L 43 32 L 43 31 L 44 31 L 44 30 L 44 29 L 45 29 L 45 28 L 46 28 L 46 27 L 46 26 L 47 26 L 47 25 L 47 24 L 48 24 L 48 23 L 48 22 L 49 22 L 49 21 L 50 21 L 50 20 L 50 19 L 51 19 L 51 18 L 51 17 L 52 17 L 52 16 L 52 15 L 51 15 L 50 15 L 49 15 L 48 15 L 47 15 L 46 15 L 45 15 L 44 15 L 43 15 L 42 15 L 41 15 L 40 15 L 39 15 L 38 15 L 37 15 L 36 15 L 35 15 L 34 15 L 33 15 L 32 15 L 31 15 L 30 15 L 29 15 L 28 15 L 27 15 L 26 15 L 25 15 L 24 15 L 23 15 L 22 15 L 21 15 L 20 15 L 19 15 L 18 15 L 17 15 L 16 15 L 15 15 L 14 15 L 13 15 z M 24 19 L 25 19 L 26 19 L 27 19 L 28 19 L 29 19 L 30 19 L 31 19 L 32 19 L 33 19 L 34 19 L 35 19 L 36 19 L 37 19 L 38 19 L 39 19 L 40 19 L 41 19 L 42 19 L 43 19 L 44 19 L 45 19 L 46 19 L 46 20 L 45 20 L 45 21 L 45 22 L 44 22 L 44 23 L 43 23 L 43 24 L 43 25 L 42 25 L 42 26 L 42 27 L 42 28 L 41 28 L 41 29 L 41 30 L 40 30 L 40 31 L 39 31 L 39 32 L 39 33 L 38 33 L 38 34 L 38 35 L 37 35 L 37 36 L 37 37 L 36 37 L 36 38 L 36 39 L 35 39 L 35 40 L 34 40 L 34 41 L 34 42 L 33 42 L 33 43 L 33 44 L 32 44 L 32 43 L 32 42 L 31 42 L 31 41 L 31 40 L 30 40 L 30 39 L 29 39 L 29 38 L 29 37 L 28 37 L 28 36 L 28 35 L 27 35 L 27 34 L 26 34 L 26 33 L 26 32 L 26 31 L 25 31 L 25 30 L 24 30 L 24 29 L 24 28 L 23 28 L 23 27 L 23 26 L 22 26 L 22 25 L 22 24 L 21 24 L 21 23 L 21 22 L 20 22 L 20 21 L 20 20 L 21 20 L 22 20 L 23 20 L 24 20 L 24 19 z " />
</svg>
